<?xml version="1.0" encoding="UTF-8" standalone="no"?>
<svg
   xmlns:dc="http://purl.org/dc/elements/1.1/"
   xmlns:cc="http://creativecommons.org/ns#"
   xmlns:rdf="http://www.w3.org/1999/02/22-rdf-syntax-ns#"
   xmlns:svg="http://www.w3.org/2000/svg"
   xmlns="http://www.w3.org/2000/svg"
   version="1.1"
   id="svg2"
   height="280"
   width="1600">
  <defs
     id="defs4">
    <marker
       style="overflow:visible"
       id="marker8589"
       refX="0"
       refY="0"
       orient="auto">
      <path
         transform="matrix(0.4,0,0,0.4,2.96,0.4)"
         style="fill:#ffffff;fill-opacity:1;fill-rule:evenodd;stroke:#000000;stroke-width:1.00000003pt;stroke-opacity:1"
         d="m -2.5,-1 c 0,2.76 -2.24,5 -5,5 -2.76,0 -5,-2.24 -5,-5 0,-2.76 2.24,-5 5,-5 2.76,0 5,2.24 5,5 z"
         id="path8394" />
    </marker>
    <marker
       style="overflow:visible"
       id="marker8586"
       refX="0"
       refY="0"
       orient="auto">
      <path
         transform="matrix(0.8,0,0,0.8,5.92,0.8)"
         style="fill:#7d7d7d;fill-opacity:1;fill-rule:evenodd;stroke:#7d7d7d;stroke-width:1.00000003pt;stroke-opacity:1"
         d="m -2.5,-1 c 0,2.76 -2.24,5 -5,5 -2.76,0 -5,-2.24 -5,-5 0,-2.76 2.24,-5 5,-5 2.76,0 5,2.24 5,5 z"
         id="path8391" />
    </marker>
    <marker
       style="overflow:visible"
       id="DotS"
       refX="0"
       refY="0"
       orient="auto">
      <path
         transform="matrix(0.2,0,0,0.2,1.48,0.2)"
         style="fill-rule:evenodd;stroke:#000000;stroke-width:1.00000003pt"
         d="m -2.5,-1 c 0,2.76 -2.24,5 -5,5 -2.76,0 -5,-2.24 -5,-5 0,-2.76 2.24,-5 5,-5 2.76,0 5,2.24 5,5 z"
         id="path3855" />
    </marker>
    <marker
       style="overflow:visible"
       id="DotM"
       refX="0"
       refY="0"
       orient="auto">
      <path
         transform="matrix(0.4,0,0,0.4,2.96,0.4)"
         style="fill-rule:evenodd;stroke:#000000;stroke-width:1.00000003pt"
         d="m -2.5,-1 c 0,2.76 -2.24,5 -5,5 -2.76,0 -5,-2.24 -5,-5 0,-2.76 2.24,-5 5,-5 2.76,0 5,2.24 5,5 z"
         id="path3852" />
    </marker>
    <marker
       style="overflow:visible"
       id="DotL"
       refX="0"
       refY="0"
       orient="auto">
      <path
         transform="matrix(0.8,0,0,0.8,5.92,0.8)"
         style="fill-rule:evenodd;stroke:#000000;stroke-width:1.00000003pt"
         d="m -2.5,-1 c 0,2.76 -2.24,5 -5,5 -2.76,0 -5,-2.24 -5,-5 0,-2.76 2.24,-5 5,-5 2.76,0 5,2.24 5,5 z"
         id="path3849" />
    </marker>
  </defs>
  <metadata
     id="metadata7">
    <rdf:RDF>
      <cc:Work
         rdf:about="">
        <dc:format>image/svg+xml</dc:format>
        <dc:type
           rdf:resource="http://purl.org/dc/dcmitype/StillImage" />
        <dc:title></dc:title>
      </cc:Work>
    </rdf:RDF>
  </metadata>
  <g
     transform="translate(0,184)"
     style="display:inline;opacity:1"
     id="layer2">
    <g
       id="text39147"
       style="font-style:normal;font-variant:normal;font-weight:normal;font-stretch:normal;font-size:40px;line-height:125%;font-family:Raleway;-inkscape-font-specification:Raleway;letter-spacing:0px;word-spacing:0px;fill:#ffffff;fill-opacity:0.39215686;stroke:none;stroke-width:1px;stroke-linecap:butt;stroke-linejoin:miter;stroke-opacity:1"
       aria-label="&amp;">
      <path
         id="path45285"
         style="font-style:normal;font-variant:normal;font-weight:300;font-stretch:normal;font-size:126.66666412px;font-family:Raleway;-inkscape-font-specification:'Raleway Light';fill:#ffffff;fill-opacity:0.39215686"
         d="M 76.188657,67.753334 64.661991,55.720001 q -5.193333,6.08 -12.16,9.753333 -6.966666,3.546667 -15.453333,3.546667 -5.573333,0 -10.766666,-1.646667 -5.066667,-1.646667 -8.993333,-4.686667 -3.926667,-3.166666 -6.206667,-7.473333 -2.28,-4.433333 -2.28,-10.006666 0,-4.56 1.52,-8.36 1.646667,-3.926667 4.306667,-7.093333 2.786666,-3.293333 6.333333,-6.206667 3.673333,-2.913333 7.726666,-5.573333 -3.546666,-3.8 -6.08,-6.84 -2.406666,-3.1666664 -3.926666,-5.6999997 -1.52,-2.5333333 -2.28,-4.81333324 -0.633333,-2.40666666 -0.633333,-4.68666656 0,-3.9266666 1.646666,-7.3466665 1.773333,-3.546667 4.686667,-6.206667 2.913333,-2.66 6.966666,-4.179999 4.053334,-1.52 8.74,-1.52 4.306667,0 7.98,1.393333 3.673333,1.266666 6.333333,3.546666 2.786667,2.28 4.306667,5.446667 1.52,3.1666666 1.52,6.8399999 0,3.7999999 -1.646667,7.2199998 -1.646667,3.2933333 -4.56,6.3333332 -2.786666,2.9133331 -6.586666,5.7000001 -3.673334,2.66 -7.726667,5.446666 l 27.106666,28.12 q 2.786667,-4.94 4.306667,-10.766667 1.52,-5.953333 1.52,-12.286666 h 5.573333 q -0.253333,15.2 -7.6,27.106666 l 16.34,16.973333 z M 37.808658,63.826667 q 7.22,0 13.046667,-3.166666 5.826666,-3.293333 10.133333,-8.74 L 32.361992,21.900002 q -3.673334,2.533333 -6.84,5.066666 -3.04,2.533333 -5.446667,5.446667 -2.406666,2.786666 -3.8,6.08 -1.266666,3.166666 -1.266666,6.966666 0,4.56 2.026666,7.98 2.026667,3.42 5.193333,5.826667 3.293334,2.28 7.346667,3.419999 4.18,1.14 8.233333,1.14 z M 21.721992,-4.1933312 q 0,1.6466667 0.38,3.29333329 0.506666,1.64666663 1.773333,3.79999991 1.393333,2.1533333 3.673333,5.0666666 2.406667,2.7866664 6.08,6.7133334 8.36,-5.4466668 13.426667,-10.0066667 5.066666,-4.68666656 5.066666,-10.5133331 0,-5.3200002 -4.053333,-8.7400002 -4.053333,-3.546666 -10.386667,-3.546666 -3.419999,0 -6.333333,1.14 -2.913333,1.14 -5.066666,3.04 -2.153334,1.9 -3.42,4.4333329 -1.14,2.5333333 -1.14,5.3199999 z" />
    </g>
  </g>
</svg>
