<?xml version="1.0" encoding="UTF-8" standalone="no"?>
<svg
   xmlns:dc="http://purl.org/dc/elements/1.1/"
   xmlns:cc="http://creativecommons.org/ns#"
   xmlns:rdf="http://www.w3.org/1999/02/22-rdf-syntax-ns#"
   xmlns:svg="http://www.w3.org/2000/svg"
   xmlns="http://www.w3.org/2000/svg"
   version="1.1"
   id="svg2"
   height="280"
   width="1600">
  <defs
     id="defs4">
    <marker
       style="overflow:visible"
       id="marker8589"
       refX="0"
       refY="0"
       orient="auto">
      <path
         transform="matrix(0.4,0,0,0.4,2.96,0.4)"
         style="fill:#ffffff;fill-opacity:1;fill-rule:evenodd;stroke:#000000;stroke-width:1.00000003pt;stroke-opacity:1"
         d="m -2.5,-1 c 0,2.76 -2.24,5 -5,5 -2.76,0 -5,-2.24 -5,-5 0,-2.76 2.24,-5 5,-5 2.76,0 5,2.24 5,5 z"
         id="path8394" />
    </marker>
    <marker
       style="overflow:visible"
       id="marker8586"
       refX="0"
       refY="0"
       orient="auto">
      <path
         transform="matrix(0.8,0,0,0.8,5.92,0.8)"
         style="fill:#7d7d7d;fill-opacity:1;fill-rule:evenodd;stroke:#7d7d7d;stroke-width:1.00000003pt;stroke-opacity:1"
         d="m -2.5,-1 c 0,2.76 -2.24,5 -5,5 -2.76,0 -5,-2.24 -5,-5 0,-2.76 2.24,-5 5,-5 2.76,0 5,2.24 5,5 z"
         id="path8391" />
    </marker>
    <marker
       style="overflow:visible"
       id="DotS"
       refX="0"
       refY="0"
       orient="auto">
      <path
         transform="matrix(0.2,0,0,0.2,1.48,0.2)"
         style="fill-rule:evenodd;stroke:#000000;stroke-width:1.00000003pt"
         d="m -2.5,-1 c 0,2.76 -2.24,5 -5,5 -2.76,0 -5,-2.24 -5,-5 0,-2.76 2.24,-5 5,-5 2.76,0 5,2.24 5,5 z"
         id="path3855" />
    </marker>
    <marker
       style="overflow:visible"
       id="DotM"
       refX="0"
       refY="0"
       orient="auto">
      <path
         transform="matrix(0.4,0,0,0.4,2.96,0.4)"
         style="fill-rule:evenodd;stroke:#000000;stroke-width:1.00000003pt"
         d="m -2.5,-1 c 0,2.76 -2.24,5 -5,5 -2.76,0 -5,-2.24 -5,-5 0,-2.76 2.24,-5 5,-5 2.76,0 5,2.24 5,5 z"
         id="path3852" />
    </marker>
    <marker
       style="overflow:visible"
       id="DotL"
       refX="0"
       refY="0"
       orient="auto">
      <path
         transform="matrix(0.8,0,0,0.8,5.92,0.8)"
         style="fill-rule:evenodd;stroke:#000000;stroke-width:1.00000003pt"
         d="m -2.5,-1 c 0,2.76 -2.24,5 -5,5 -2.76,0 -5,-2.24 -5,-5 0,-2.76 2.24,-5 5,-5 2.76,0 5,2.24 5,5 z"
         id="path3849" />
    </marker>
  </defs>
  <metadata
     id="metadata7">
    <rdf:RDF>
      <cc:Work
         rdf:about="">
        <dc:format>image/svg+xml</dc:format>
        <dc:type
           rdf:resource="http://purl.org/dc/dcmitype/StillImage" />
        <dc:title></dc:title>
      </cc:Work>
    </rdf:RDF>
  </metadata>
  <g
     transform="translate(0,184)"
     style="display:inline;opacity:1"
     id="layer2">
    <g
       id="text39120"
       style="font-style:normal;font-variant:normal;font-weight:normal;font-stretch:normal;font-size:40px;line-height:125%;font-family:Raleway;-inkscape-font-specification:Raleway;letter-spacing:0px;word-spacing:0px;fill:#000000;fill-opacity:1;stroke:none;stroke-width:1px;stroke-linecap:butt;stroke-linejoin:miter;stroke-opacity:1"
       aria-label="Full-stack Web Developer">
      <path
         id="path45203"
         style="font-style:normal;font-variant:normal;font-weight:300;font-stretch:normal;font-size:126.66666412px;font-family:Raleway;-inkscape-font-specification:'Raleway Light';fill:#ffffff"
         d="m 98.344262,-64.829193 v -89.933327 h 58.519998 v 5.82666 h -52.06 v 35.72 h 44.20667 v 5.57333 h -44.20667 v 42.813337 z" />
      <path
         id="path45205"
         style="font-style:normal;font-variant:normal;font-weight:300;font-stretch:normal;font-size:126.66666412px;font-family:Raleway;-inkscape-font-specification:'Raleway Light';fill:#ffffff"
         d="m 187.8402,-63.562526 q -21.02667,0 -21.02667,-29.133333 v -38.000001 h 6.33333 v 37.113334 q 0,24.32 16.59334,24.32 4.18,0 8.10666,-1.393334 3.92667,-1.52 7.34667,-4.053333 3.42,-2.66 5.95333,-6.333333 2.66,-3.673333 4.18,-8.106667 v -41.546667 h 6.33334 v 57 q 0,3.166667 2.66,3.166667 v 5.7 q -0.63334,0.126667 -1.14,0.126667 -0.50667,0 -0.76,0 -2.53334,0 -4.56,-1.52 -1.9,-1.646667 -1.9,-4.306667 v -9.88 q -4.30667,7.98 -11.90667,12.413333 -7.47333,4.433334 -16.21333,4.433334 z" />
      <path
         id="path45207"
         style="font-style:normal;font-variant:normal;font-weight:300;font-stretch:normal;font-size:126.66666412px;font-family:Raleway;-inkscape-font-specification:'Raleway Light';fill:#ffffff"
         d="m 242.41968,-157.29586 h 6.46 v 79.42 q 0,3.673334 2.02667,5.826667 2.15333,2.153333 5.82666,2.153333 1.39334,0 3.29334,-0.253333 2.02666,-0.38 3.67333,-1.013333 l 1.26667,5.066666 q -2.15334,0.886667 -5.32,1.393334 -3.16667,0.633333 -5.44667,0.633333 -5.32,0 -8.61333,-3.166667 -3.16667,-3.293333 -3.16667,-8.74 z" />
      <path
         id="path45209"
         style="font-style:normal;font-variant:normal;font-weight:300;font-stretch:normal;font-size:126.66666412px;font-family:Raleway;-inkscape-font-specification:'Raleway Light';fill:#ffffff"
         d="m 275.32332,-157.29586 h 6.46 v 79.42 q 0,3.673334 2.02667,5.826667 2.15333,2.153333 5.82666,2.153333 1.39334,0 3.29334,-0.253333 2.02666,-0.38 3.67333,-1.013333 l 1.26667,5.066666 q -2.15334,0.886667 -5.32,1.393334 -3.16667,0.633333 -5.44667,0.633333 -5.32,0 -8.61333,-3.166667 -3.16667,-3.293333 -3.16667,-8.74 z" />
      <path
         id="path45211"
         style="font-style:normal;font-variant:normal;font-weight:300;font-stretch:normal;font-size:126.66666412px;font-family:Raleway;-inkscape-font-specification:'Raleway Light';fill:#ffffff"
         d="m 303.85301,-96.369192 v -5.826668 h 36.48 v 5.826668 z" />
      <path
         id="path45213"
         style="font-style:normal;font-variant:normal;font-weight:300;font-stretch:normal;font-size:126.66666412px;font-family:Raleway;-inkscape-font-specification:'Raleway Light';fill:#ffffff"
         d="m 379.58382,-63.562526 q -7.6,0 -14.56666,-2.533334 -6.96667,-2.533333 -12.16,-7.6 l 3.16667,-4.306666 q 5.32,4.813333 11.02,7.093333 5.69999,2.28 12.53999,2.28 8.61334,0 13.80667,-3.546667 5.32,-3.673333 5.32,-10.133333 0,-3.04 -1.39333,-5.066666 -1.26667,-2.153334 -3.92667,-3.546667 -2.66,-1.52 -6.58667,-2.66 -3.92666,-1.14 -9.12,-2.406666 -5.57333,-1.266667 -9.75333,-2.533334 -4.05333,-1.266666 -6.71333,-3.040004 -2.66,-1.77333 -4.05333,-4.30666 -1.26667,-2.53334 -1.26667,-6.46 0,-4.94 1.9,-8.61334 1.9,-3.67333 5.19333,-6.08 3.42,-2.40666 7.72667,-3.54666 4.43333,-1.26667 9.37333,-1.26667 7.72667,0 13.68,2.66 5.95333,2.53333 9.24667,6.58667 l -3.54667,3.42 q -3.29333,-3.8 -8.61333,-5.7 -5.19334,-1.9 -11.14667,-1.9 -3.67333,0 -6.96667,0.76 -3.16666,0.76 -5.57333,2.40666 -2.40666,1.64667 -3.8,4.30667 -1.39333,2.53333 -1.39333,6.08 0,2.91333 0.88667,4.68667 1.01333,1.77333 3.04,3.04 2.15333,1.26666 5.44666,2.28 3.29333,0.88666 7.85333,2.02666 6.20667,1.520004 11.02,2.913338 4.81334,1.393333 7.98,3.419999 3.29334,2.026667 4.94,4.813334 1.77334,2.786666 1.77334,7.093333 0,8.866666 -6.96667,14.186666 -6.84,5.193334 -18.36667,5.193334 z" />
      <path
         id="path45215"
         style="font-style:normal;font-variant:normal;font-weight:300;font-stretch:normal;font-size:126.66666412px;font-family:Raleway;-inkscape-font-specification:'Raleway Light';fill:#ffffff"
         d="m 448.92987,-67.99586 q -0.50667,0.253334 -1.77334,1.013334 -1.14,0.633333 -3.04,1.266666 -1.77333,0.633334 -4.05333,1.14 -2.28,0.506667 -4.94,0.506667 -2.66,0 -5.06667,-0.76 -2.28,-0.76 -4.05333,-2.28 -1.77333,-1.52 -2.78667,-3.673333 -1.01333,-2.153334 -1.01333,-5.066667 v -49.653337 h -9.24667 v -5.19333 h 9.24667 v -22.54666 h 6.33333 v 22.54666 h 15.32667 v 5.19333 h -15.32667 v 48.133337 q 0,3.673333 2.53334,5.573333 2.53333,1.773334 5.7,1.773334 3.92666,0 6.71333,-1.266667 2.91333,-1.393333 3.54667,-1.773333 z" />
      <path
         id="path45217"
         style="font-style:normal;font-variant:normal;font-weight:300;font-stretch:normal;font-size:126.66666412px;font-family:Raleway;-inkscape-font-specification:'Raleway Light';fill:#ffffff"
         d="m 476.32947,-63.562526 q -4.56,0 -8.48667,-1.52 -3.92666,-1.646667 -6.96666,-4.306667 -2.91334,-2.786667 -4.56,-6.46 -1.64667,-3.8 -1.64667,-8.106666 0,-4.306667 2.02667,-7.853334 2.02666,-3.546666 5.57333,-6.079999 3.67333,-2.659998 8.74,-4.053338 5.06667,-1.52 11.14667,-1.52 5.32,0 10.64,1.01334 5.44666,0.88666 9.75333,2.533331 v -6.460001 q 0,-9.37333 -5.32,-14.82 -5.32,-5.57333 -14.44,-5.57333 -4.81333,0 -10.26,2.02666 -5.32,2.02667 -10.89333,5.82667 l -2.40667,-4.30667 q 12.66667,-8.61333 24.06667,-8.61333 11.90666,0 18.74666,6.96667 6.84,6.84 6.84,19 v 32.17333 q 0,3.166667 2.78667,3.166667 v 5.7 q -0.63333,0.126667 -1.39333,0.126667 -0.63334,0.126666 -1.14,0.126666 -2.53334,0 -4.05334,-1.646666 -1.52,-1.773334 -1.77333,-4.18 v -5.446667 q -4.56,5.953333 -11.65333,9.12 -7.09334,3.166667 -15.32667,3.166667 z m 1.26667,-5.066667 q 7.34666,0 13.42666,-2.786667 6.20667,-2.786666 9.5,-7.346666 2.02667,-2.66 2.02667,-5.066667 v -11.653333 q -4.56,-1.773333 -9.5,-2.66 -4.94,-0.886666 -10.26,-0.886666 -4.94,0 -8.99333,1.14 -4.05334,1.013333 -6.96667,2.913333 -2.91333,1.9 -4.56,4.686666 -1.52,2.66 -1.52,5.953334 0,3.293333 1.26667,6.206666 1.26666,2.913333 3.54666,5.066667 2.28,2.026666 5.32,3.293333 3.16667,1.14 6.71334,1.14 z" />
      <path
         id="path45219"
         style="font-style:normal;font-variant:normal;font-weight:300;font-stretch:normal;font-size:126.66666412px;font-family:Raleway;-inkscape-font-specification:'Raleway Light';fill:#ffffff"
         d="m 523.58998,-98.015859 q 0,-6.966671 2.40667,-13.173331 2.40666,-6.20667 6.71333,-10.76667 4.30667,-4.56 10.26,-7.22 5.95333,-2.66 13.04667,-2.66 8.99333,0 15.83333,4.05333 6.84,4.05334 10.26,11.27334 l -6.20667,2.02666 q -2.91333,-5.44666 -8.36,-8.48666 -5.32,-3.16667 -11.78,-3.16667 -5.44666,0 -10.13333,2.15333 -4.68667,2.15334 -8.23333,5.95334 -3.42,3.8 -5.44667,8.99333 -2.02667,5.06667 -2.02667,11.020001 0,5.953333 2.02667,11.273333 2.15333,5.193333 5.57333,9.12 3.54667,3.8 8.23334,6.08 4.81333,2.28 10.13333,2.28 3.42,0 6.71333,-1.013334 3.42,-1.013333 6.20667,-2.66 2.91333,-1.646666 4.94,-3.8 2.15333,-2.279999 2.91333,-4.686666 l 6.20667,1.773333 q -1.26667,3.42 -3.92667,6.46 -2.53333,2.913333 -6.08,5.066667 -3.54666,2.153333 -7.85333,3.293333 -4.30667,1.266667 -8.86667,1.266667 -6.96666,0 -12.92,-2.66 -5.95333,-2.786667 -10.38666,-7.473334 -4.30667,-4.813333 -6.84,-11.019999 -2.40667,-6.206667 -2.40667,-13.3 z" />
      <path
         id="path45221"
         style="font-style:normal;font-variant:normal;font-weight:300;font-stretch:normal;font-size:126.66666412px;font-family:Raleway;-inkscape-font-specification:'Raleway Light';fill:#ffffff"
         d="m 644.80008,-64.829193 -25.71333,-35.213337 -15.58,14.313337 v 20.9 h -6.33333 v -92.466667 h 6.33333 v 64.600001 l 40.02667,-37.873331 h 7.34666 l -27.48666,26.72666 28.37333,39.013337 z" />
      <path
         id="path45223"
         style="font-style:normal;font-variant:normal;font-weight:300;font-stretch:normal;font-size:126.66666412px;font-family:Raleway;-inkscape-font-specification:'Raleway Light';fill:#ffffff"
         d="m 728.03197,-154.12919 h 6.33333 l 13.42667,32.68 13.42667,-32.68 h 6.33333 l -15.83333,37.87333 18.87333,43.826667 34.45333,-82.333327 h 7.09333 l -38.50666,89.933327 h -5.95333 l -19.76,-46.233337 -19.88667,46.233337 h -5.95333 l -38.38,-89.933327 h 6.96666 l 34.58,82.333327 18.62,-43.826667 z" />
      <path
         id="path45225"
         style="font-style:normal;font-variant:normal;font-weight:300;font-stretch:normal;font-size:126.66666412px;font-family:Raleway;-inkscape-font-specification:'Raleway Light';fill:#ffffff"
         d="m 843.61728,-63.562526 q -6.96666,0 -12.92,-2.66 -5.95333,-2.786667 -10.38666,-7.473334 -4.30667,-4.813333 -6.84,-11.019999 -2.40667,-6.206667 -2.40667,-13.3 0,-6.966671 2.40667,-13.046671 2.53333,-6.20666 6.84,-10.76666 4.30666,-4.68667 10.13333,-7.34667 5.95333,-2.66 12.79333,-2.66 6.96667,0 12.92,2.78667 5.95334,2.66 10.26,7.34666 4.30667,4.56 6.71334,10.76667 2.40666,6.08 2.40666,12.920001 0,0.633333 0,1.646667 0,0.886666 -0.12666,1.139999 h -57.76 q 0.38,5.7 2.66,10.64 2.28,4.813334 5.7,8.36 3.54666,3.546667 8.10666,5.573333 4.56,2.026667 9.75334,2.026667 3.42,0 6.71333,-0.886667 3.29333,-1.013333 6.08,-2.66 2.91333,-1.646666 5.06667,-3.926666 2.28,-2.406667 3.54666,-5.193333 l 5.57334,1.52 q -1.39334,3.546666 -4.18,6.586666 -2.66,2.913333 -6.33334,5.066667 -3.54666,2.153333 -7.85333,3.293333 -4.30667,1.266667 -8.86667,1.266667 z m 25.84,-36.733334 q -0.38,-5.82667 -2.66,-10.64 -2.15333,-4.81333 -5.7,-8.23333 -3.42,-3.54667 -7.98,-5.44667 -4.56,-2.02667 -9.75333,-2.02667 -5.19333,0 -9.75333,2.02667 -4.56,1.9 -8.10667,5.44667 -3.42,3.42 -5.57333,8.36 -2.02667,4.81333 -2.40667,10.51333 z" />
      <path
         id="path45227"
         style="font-style:normal;font-variant:normal;font-weight:300;font-stretch:normal;font-size:126.66666412px;font-family:Raleway;-inkscape-font-specification:'Raleway Light';fill:#ffffff"
         d="m 920.37526,-63.562526 q -7.72666,0 -14.44,-4.053334 -6.71333,-4.053333 -10.51333,-10.386666 v 13.173333 h -5.82667 v -92.466667 h 6.33334 v 40.91333 q 4.68666,-6.84 11.02,-11.14666 6.46,-4.30667 14.82,-4.30667 6.96666,0 12.54,3.04 5.7,2.91333 9.5,7.85333 3.92666,4.81334 5.95333,11.02 2.15333,6.08 2.15333,12.413338 0,6.839999 -2.40666,13.046666 -2.40667,6.08 -6.71334,10.766666 -4.18,4.56 -10.00666,7.346667 -5.7,2.786667 -12.41334,2.786667 z m -1.26666,-5.7 q 5.82666,0 10.64,-2.406667 4.81333,-2.406667 8.23333,-6.333333 3.54667,-4.053333 5.44667,-9.12 2.02666,-5.066667 2.02666,-10.386666 0,-5.573338 -1.9,-10.639998 -1.77333,-5.19334 -5.19333,-9.12 -3.29333,-4.05334 -7.98,-6.46 -4.56,-2.40667 -10.13333,-2.40667 -4.18,0 -7.85334,1.52 -3.67333,1.39333 -6.84,3.8 -3.04,2.40667 -5.57333,5.57333 -2.40667,3.16667 -4.05333,6.58667 v 21.786667 q 0.38,3.673334 2.78666,6.966667 2.40667,3.166666 5.7,5.573333 3.42,2.28 7.34667,3.673333 3.92667,1.393334 7.34667,1.393334 z" />
      <path
         id="path45229"
         style="font-style:normal;font-variant:normal;font-weight:300;font-stretch:normal;font-size:126.66666412px;font-family:Raleway;-inkscape-font-specification:'Raleway Light';fill:#ffffff"
         d="m 1001.5864,-64.829193 v -89.933327 h 29.8934 q 10.64,0 18.62,3.54666 8.1066,3.54667 13.4266,9.62667 5.32,6.08 7.98,14.31333 2.66,8.10667 2.66,17.35333 0,10.260004 -3.04,18.620004 -2.9133,8.233333 -8.4866,14.186666 -5.5734,5.826667 -13.5534,9.12 -7.8533,3.166667 -17.6066,3.166667 z m 66.12,-45.093337 q 0,-8.48666 -2.4066,-15.58 -2.4067,-7.22 -7.0934,-12.41333 -4.56,-5.19333 -11.2733,-8.10666 -6.7133,-2.91334 -15.4533,-2.91334 h -23.4334 v 78.28 h 23.4334 q 8.8666,0 15.58,-2.913333 6.84,-3.04 11.4,-8.36 4.56,-5.32 6.84,-12.413333 2.4066,-7.220004 2.4066,-15.580004 z" />
      <path
         id="path45231"
         style="font-style:normal;font-variant:normal;font-weight:300;font-stretch:normal;font-size:126.66666412px;font-family:Raleway;-inkscape-font-specification:'Raleway Light';fill:#ffffff"
         d="m 1117.9792,-63.562526 q -6.9666,0 -12.92,-2.66 -5.9533,-2.786667 -10.3866,-7.473334 -4.3067,-4.813333 -6.84,-11.019999 -2.4067,-6.206667 -2.4067,-13.3 0,-6.966671 2.4067,-13.046671 2.5333,-6.20666 6.84,-10.76666 4.3066,-4.68667 10.1333,-7.34667 5.9533,-2.66 12.7933,-2.66 6.9667,0 12.92,2.78667 5.9534,2.66 10.26,7.34666 4.3067,4.56 6.7134,10.76667 2.4066,6.08 2.4066,12.920001 0,0.633333 0,1.646667 0,0.886666 -0.1266,1.139999 h -57.76 q 0.38,5.7 2.66,10.64 2.28,4.813334 5.7,8.36 3.5466,3.546667 8.1066,5.573333 4.56,2.026667 9.7534,2.026667 3.42,0 6.7133,-0.886667 3.2933,-1.013333 6.08,-2.66 2.9133,-1.646666 5.0667,-3.926666 2.28,-2.406667 3.5466,-5.193333 l 5.5734,1.52 q -1.3934,3.546666 -4.18,6.586666 -2.66,2.913333 -6.3334,5.066667 -3.5466,2.153333 -7.8533,3.293333 -4.3067,1.266667 -8.8667,1.266667 z m 25.84,-36.733334 q -0.38,-5.82667 -2.66,-10.64 -2.1533,-4.81333 -5.7,-8.23333 -3.42,-3.54667 -7.98,-5.44667 -4.56,-2.02667 -9.7533,-2.02667 -5.1933,0 -9.7533,2.02667 -4.56,1.9 -8.1067,5.44667 -3.42,3.42 -5.5733,8.36 -2.0267,4.81333 -2.4067,10.51333 z" />
      <path
         id="path45233"
         style="font-style:normal;font-variant:normal;font-weight:300;font-stretch:normal;font-size:126.66666412px;font-family:Raleway;-inkscape-font-specification:'Raleway Light';fill:#ffffff"
         d="m 1182.4922,-64.829193 -27.4867,-65.866667 h 6.5867 l 24.32,59.533334 24.4466,-59.533334 h 6.2067 l -27.4867,65.866667 z" />
      <path
         id="path45235"
         style="font-style:normal;font-variant:normal;font-weight:300;font-stretch:normal;font-size:126.66666412px;font-family:Raleway;-inkscape-font-specification:'Raleway Light';fill:#ffffff"
         d="m 1254.7892,-63.562526 q -6.9667,0 -12.92,-2.66 -5.9534,-2.786667 -10.3867,-7.473334 -4.3067,-4.813333 -6.84,-11.019999 -2.4067,-6.206667 -2.4067,-13.3 0,-6.966671 2.4067,-13.046671 2.5333,-6.20666 6.84,-10.76666 4.3067,-4.68667 10.1333,-7.34667 5.9534,-2.66 12.7934,-2.66 6.9666,0 12.92,2.78667 5.9533,2.66 10.26,7.34666 4.3066,4.56 6.7133,10.76667 2.4067,6.08 2.4067,12.920001 0,0.633333 0,1.646667 0,0.886666 -0.1267,1.139999 h -57.76 q 0.38,5.7 2.66,10.64 2.28,4.813334 5.7,8.36 3.5467,3.546667 8.1067,5.573333 4.56,2.026667 9.7533,2.026667 3.42,0 6.7133,-0.886667 3.2934,-1.013333 6.08,-2.66 2.9134,-1.646666 5.0667,-3.926666 2.28,-2.406667 3.5467,-5.193333 l 5.5733,1.52 q -1.3933,3.546666 -4.18,6.586666 -2.66,2.913333 -6.3333,5.066667 -3.5467,2.153333 -7.8534,3.293333 -4.3066,1.266667 -8.8666,1.266667 z m 25.84,-36.733334 q -0.38,-5.82667 -2.66,-10.64 -2.1534,-4.81333 -5.7,-8.23333 -3.42,-3.54667 -7.98,-5.44667 -4.56,-2.02667 -9.7534,-2.02667 -5.1933,0 -9.7533,2.02667 -4.56,1.9 -8.1067,5.44667 -3.42,3.42 -5.5733,8.36 -2.0267,4.81333 -2.4067,10.51333 z" />
      <path
         id="path45237"
         style="font-style:normal;font-variant:normal;font-weight:300;font-stretch:normal;font-size:126.66666412px;font-family:Raleway;-inkscape-font-specification:'Raleway Light';fill:#ffffff"
         d="m 1301.2738,-157.29586 h 6.46 v 79.42 q 0,3.673334 2.0267,5.826667 2.1533,2.153333 5.8266,2.153333 1.3934,0 3.2934,-0.253333 2.0266,-0.38 3.6733,-1.013333 l 1.2667,5.066666 q -2.1534,0.886667 -5.32,1.393334 -3.1667,0.633333 -5.4467,0.633333 -5.32,0 -8.6133,-3.166667 -3.1667,-3.293333 -3.1667,-8.74 z" />
      <path
         id="path45239"
         style="font-style:normal;font-variant:normal;font-weight:300;font-stretch:normal;font-size:126.66666412px;font-family:Raleway;-inkscape-font-specification:'Raleway Light';fill:#ffffff"
         d="m 1361.2842,-63.562526 q -6.9667,0 -12.92,-2.66 -5.8267,-2.786667 -10.1334,-7.473334 -4.3066,-4.686666 -6.7133,-10.893333 -2.4067,-6.206666 -2.4067,-13.046666 0,-6.966671 2.4067,-13.173331 2.5333,-6.20667 6.84,-10.89334 4.3067,-4.68666 10.1333,-7.34666 5.9534,-2.78667 12.7934,-2.78667 6.84,0 12.6666,2.78667 5.8267,2.66 10.1334,7.34666 4.4333,4.68667 6.84,10.89334 2.5333,6.20666 2.5333,13.173331 0,6.84 -2.5333,13.046666 -2.4067,6.206667 -6.7134,10.893333 -4.3066,4.686667 -10.26,7.473334 -5.8266,2.66 -12.6666,2.66 z m -25.84,-33.82 q 0,5.826667 2.0266,11.02 2.0267,5.066667 5.4467,8.866666 3.5467,3.8 8.2333,6.08 4.6867,2.153334 10.0067,2.153334 5.32,0 10.0067,-2.153334 4.6866,-2.28 8.2333,-6.206666 3.5467,-3.926667 5.5733,-8.993333 2.0267,-5.193334 2.0267,-11.146667 0,-5.826664 -2.0267,-10.893334 -2.0266,-5.19333 -5.5733,-8.99333 -3.5467,-3.92667 -8.2333,-6.20667 -4.56,-2.28 -9.88,-2.28 -5.32,0 -10.0067,2.28 -4.6867,2.28 -8.2333,6.20667 -3.42,3.92666 -5.5734,9.24666 -2.0266,5.19334 -2.0266,11.020004 z" />
      <path
         id="path45241"
         style="font-style:normal;font-variant:normal;font-weight:300;font-stretch:normal;font-size:126.66666412px;font-family:Raleway;-inkscape-font-specification:'Raleway Light';fill:#ffffff"
         d="m 1440.8051,-63.562526 q -8.4867,0 -15.2,-4.433334 -6.5867,-4.56 -10.64,-11.019999 v 41.166665 h -6.3333 v -92.846666 h 5.8266 v 13.17333 q 4.0534,-6.33333 10.64,-10.26 6.7134,-4.05333 14.3134,-4.05333 6.84,0 12.6666,2.91333 5.8267,2.91334 10.0067,7.72667 4.18,4.68667 6.46,10.89333 2.4067,6.20667 2.4067,12.666671 0,6.84 -2.1534,13.046666 -2.1533,6.206667 -6.2066,10.893333 -3.9267,4.686667 -9.5,7.473334 -5.5734,2.66 -12.2867,2.66 z m -1.52,-5.7 q 5.7,0 10.3867,-2.406667 4.6866,-2.406667 7.98,-6.333333 3.2933,-4.053333 5.0666,-9.12 1.7734,-5.193333 1.7734,-10.513333 0,-5.700001 -2.0267,-10.766671 -2.0267,-5.19333 -5.7,-9.12 -3.5467,-3.92666 -8.36,-6.20666 -4.8133,-2.40667 -10.26,-2.40667 -3.42,0 -7.3467,1.52 -3.8,1.39333 -7.22,3.92667 -3.42,2.40666 -5.8266,5.57333 -2.4067,3.16667 -2.7867,6.71333 v 21.660004 q 1.6467,3.673333 4.18,6.84 2.5333,3.166666 5.7,5.573333 3.1667,2.406667 6.84,3.8 3.6733,1.266667 7.6,1.266667 z" />
      <path
         id="path45243"
         style="font-style:normal;font-variant:normal;font-weight:300;font-stretch:normal;font-size:126.66666412px;font-family:Raleway;-inkscape-font-specification:'Raleway Light';fill:#ffffff"
         d="m 1514.0599,-63.562526 q -6.9667,0 -12.92,-2.66 -5.9533,-2.786667 -10.3867,-7.473334 -4.3066,-4.813333 -6.84,-11.019999 -2.4066,-6.206667 -2.4066,-13.3 0,-6.966671 2.4066,-13.046671 2.5334,-6.20666 6.84,-10.76666 4.3067,-4.68667 10.1334,-7.34667 5.9533,-2.66 12.7933,-2.66 6.9667,0 12.92,2.78667 5.9533,2.66 10.26,7.34666 4.3067,4.56 6.7133,10.76667 2.4067,6.08 2.4067,12.920001 0,0.633333 0,1.646667 0,0.886666 -0.1267,1.139999 h -57.76 q 0.38,5.7 2.66,10.64 2.28,4.813334 5.7,8.36 3.5467,3.546667 8.1067,5.573333 4.56,2.026667 9.7533,2.026667 3.42,0 6.7134,-0.886667 3.2933,-1.013333 6.08,-2.66 2.9133,-1.646666 5.0666,-3.926666 2.28,-2.406667 3.5467,-5.193333 l 5.5733,1.52 q -1.3933,3.546666 -4.18,6.586666 -2.66,2.913333 -6.3333,5.066667 -3.5467,2.153333 -7.8533,3.293333 -4.3067,1.266667 -8.8667,1.266667 z m 25.84,-36.733334 q -0.38,-5.82667 -2.66,-10.64 -2.1533,-4.81333 -5.7,-8.23333 -3.42,-3.54667 -7.98,-5.44667 -4.56,-2.02667 -9.7533,-2.02667 -5.1934,0 -9.7534,2.02667 -4.56,1.9 -8.1066,5.44667 -3.42,3.42 -5.5734,8.36 -2.0266,4.81333 -2.4066,10.51333 z" />
      <path
         id="path45245"
         style="font-style:normal;font-variant:normal;font-weight:300;font-stretch:normal;font-size:126.66666412px;font-family:Raleway;-inkscape-font-specification:'Raleway Light';fill:#ffffff"
         d="m 1591.198,-124.99586 q -8.8667,0.25333 -15.58,5.32 -6.5867,4.94 -9.2467,13.68 v 41.166667 h -6.3333 v -65.866667 h 6.08 v 16.21333 q 3.42,-6.96666 8.9933,-11.27333 5.7,-4.43333 12.16,-5.06667 1.2667,-0.12666 2.28,-0.12666 1.0134,0 1.6467,0 z" />
    </g>
  </g>
</svg>
