<?xml version="1.0" encoding="UTF-8" standalone="no"?>
<svg
   xmlns:dc="http://purl.org/dc/elements/1.1/"
   xmlns:cc="http://creativecommons.org/ns#"
   xmlns:rdf="http://www.w3.org/1999/02/22-rdf-syntax-ns#"
   xmlns:svg="http://www.w3.org/2000/svg"
   xmlns="http://www.w3.org/2000/svg"
   version="1.1"
   id="svg2"
   height="200"
   width="1575">
  <defs
     id="defs4">
    <marker
       style="overflow:visible"
       id="marker8589"
       refX="0"
       refY="0"
       orient="auto">
      <path
         transform="matrix(0.4,0,0,0.4,2.96,0.4)"
         style="fill:#ffffff;fill-opacity:1;fill-rule:evenodd;stroke:#000000;stroke-width:1.00000003pt;stroke-opacity:1"
         d="m -2.5,-1 c 0,2.76 -2.24,5 -5,5 -2.76,0 -5,-2.24 -5,-5 0,-2.76 2.24,-5 5,-5 2.76,0 5,2.24 5,5 z"
         id="path8394" />
    </marker>
    <marker
       style="overflow:visible"
       id="marker8586"
       refX="0"
       refY="0"
       orient="auto">
      <path
         transform="matrix(0.8,0,0,0.8,5.92,0.8)"
         style="fill:#7d7d7d;fill-opacity:1;fill-rule:evenodd;stroke:#7d7d7d;stroke-width:1.00000003pt;stroke-opacity:1"
         d="m -2.5,-1 c 0,2.76 -2.24,5 -5,5 -2.76,0 -5,-2.24 -5,-5 0,-2.76 2.24,-5 5,-5 2.76,0 5,2.24 5,5 z"
         id="path8391" />
    </marker>
    <marker
       style="overflow:visible"
       id="DotS"
       refX="0"
       refY="0"
       orient="auto">
      <path
         transform="matrix(0.2,0,0,0.2,1.48,0.2)"
         style="fill-rule:evenodd;stroke:#000000;stroke-width:1.00000003pt"
         d="m -2.5,-1 c 0,2.76 -2.24,5 -5,5 -2.76,0 -5,-2.24 -5,-5 0,-2.76 2.24,-5 5,-5 2.76,0 5,2.24 5,5 z"
         id="path3855" />
    </marker>
    <marker
       style="overflow:visible"
       id="DotM"
       refX="0"
       refY="0"
       orient="auto">
      <path
         transform="matrix(0.4,0,0,0.4,2.96,0.4)"
         style="fill-rule:evenodd;stroke:#000000;stroke-width:1.00000003pt"
         d="m -2.5,-1 c 0,2.76 -2.24,5 -5,5 -2.76,0 -5,-2.24 -5,-5 0,-2.76 2.24,-5 5,-5 2.76,0 5,2.24 5,5 z"
         id="path3852" />
    </marker>
    <marker
       style="overflow:visible"
       id="DotL"
       refX="0"
       refY="0"
       orient="auto">
      <path
         transform="matrix(0.8,0,0,0.8,5.92,0.8)"
         style="fill-rule:evenodd;stroke:#000000;stroke-width:1.00000003pt"
         d="m -2.5,-1 c 0,2.76 -2.24,5 -5,5 -2.76,0 -5,-2.24 -5,-5 0,-2.76 2.24,-5 5,-5 2.76,0 5,2.24 5,5 z"
         id="path3849" />
    </marker>
  </defs>
  <metadata
     id="metadata7">
    <rdf:RDF>
      <cc:Work
         rdf:about="">
        <dc:format>image/svg+xml</dc:format>
        <dc:type
           rdf:resource="http://purl.org/dc/dcmitype/StillImage" />
        <dc:title></dc:title>
      </cc:Work>
    </rdf:RDF>
  </metadata>
  <g
     transform="translate(0,104)"
     style="display:inline;opacity:1"
     id="layer2">
    <g
       id="text2985"
       style="font-style:normal;font-variant:normal;font-weight:normal;font-stretch:normal;font-size:35.58779907px;line-height:0%;font-family:Voltaire;-inkscape-font-specification:Voltaire;letter-spacing:0px;word-spacing:0px;fill:#f2f2f2;fill-opacity:1;stroke:none;stroke-width:2.96564984"
       aria-label="Galan">
      <path
         id="path43936"
         style="font-size:197.70999146px;fill:#f2f2f2;stroke:none;stroke-width:2.96564984"
         d="m 69.828349,49.93287 q -29.458788,0 -44.682458,-18.189319 Q 9.9222221,13.356522 9.9222221,-22.231277 q 0,-17.398479 4.9427499,-30.842758 5.14046,-13.44428 13.641989,-22.538939 8.69924,-9.09466 20.166419,-13.64199 11.66489,-4.74504 24.911459,-4.74504 15.02596,0 25.306879,4.74504 10.478632,4.74504 18.584742,12.25802 l -17.20077,17.793899 q -6.326722,-5.53588 -12.060311,-8.10611 -5.53588,-2.76794 -12.85115,-2.76794 -6.919849,0 -12.851149,2.76794 -5.73359,2.57023 -9.8855,8.50153 -4.15191,5.73359 -6.524429,14.828249 -2.37252,9.09466 -2.37252,21.945809 0,13.4442796 1.58168,22.73664921 1.581679,9.09465959 4.745039,14.82824979 3.36107,5.535879 8.30382,8.106109 5.14046,2.37252 11.862599,2.37252 4.54733,0 8.89695,-0.98855 4.34962,-1.18626 7.9084,-3.16336 V -9.1824174 H 70.026059 L 66.8627,-32.116776 h 51.20689 V 36.093171 Q 107.59096,42.41989 95.530648,46.17638 83.668049,49.93287 69.828349,49.93287 Z" />
      <path
         id="path43938"
         style="font-style:normal;font-variant:normal;font-weight:bold;font-stretch:normal;font-size:170.03059387px;line-height:1.25;font-family:'Fira Mono';-inkscape-font-specification:'Fira Mono Bold';letter-spacing:0px;fill:#f2f2f2;stroke:none;stroke-width:2.96564984"
         d="m 212.19722,20.387089 q 0,5.100918 1.36024,7.481346 1.36025,2.210398 4.59083,3.400612 l -5.61101,17.853212 q -8.16147,-0.850153 -13.60245,-3.570642 -5.44098,-2.72049 -8.67156,-8.331499 -5.27095,6.291132 -13.43242,9.351682 -8.16147,2.89052 -16.32293,2.89052 -6.97126,0 -12.7523,-2.210397 -5.61101,-2.040368 -9.69174,-5.781041 -3.91071,-3.740673 -6.1211,-8.84159 -2.2104,-5.270949 -2.2104,-11.562081 0,-14.7926615 11.56208,-22.7840994 11.56208,-7.9914379 32.64587,-7.9914379 h 12.07218 v -3.2305817 q 0,-6.971254 -4.76086,-10.371866 -4.59083,-3.400612 -13.26239,-3.400612 -4.08073,0 -10.88196,1.190214 -6.80122,1.190215 -13.60244,3.570643 l -6.29113,-18.023243 q 8.84159,-3.400612 18.19327,-5.100918 9.52171,-1.700306 16.663,-1.700306 20.74373,0 30.43547,7.991438 9.69175,7.991438 9.69175,23.974314 z m -42.33762,9.691744 q 4.42079,0 9.01162,-2.550459 4.76086,-2.550459 7.14129,-7.311316 V 5.7644577 h -6.46117 q -11.22202,0 -16.49296,3.4006119 -5.10092,3.4006114 -5.10092,10.0318054 0,5.100917 3.23058,7.991438 3.40061,2.89052 8.67156,2.89052 z" />
      <path
         id="path43940"
         style="font-style:normal;font-variant:normal;font-weight:bold;font-stretch:normal;font-size:170.03059387px;line-height:1.25;font-family:'Fira Mono';-inkscape-font-specification:'Fira Mono Bold';letter-spacing:0px;fill:#f2f2f2;stroke:none;stroke-width:2.96564984"
         d="m 284.3938,18.176691 q 0,5.440979 3.06055,7.651377 3.06055,2.210397 8.50153,2.210397 3.40061,0 6.63119,-0.680122 3.23058,-0.850153 6.1211,-2.040367 l 6.46117,18.193274 q -4.59083,2.380428 -11.05199,4.080734 -6.46117,1.870336 -15.13273,1.870336 -16.66299,0 -24.31437,-9.351682 -7.48135,-9.521714 -7.48135,-25.504589 V -61.057566 H 230.66413 V -79.5909 h 53.72967 z" />
      <path
         id="path43942"
         style="font-style:normal;font-variant:normal;font-weight:bold;font-stretch:normal;font-size:170.03059387px;line-height:1.25;font-family:'Fira Mono';-inkscape-font-specification:'Fira Mono Bold';letter-spacing:0px;fill:#f2f2f2;stroke:none;stroke-width:2.96564984"
         d="m 416.10109,20.387089 q 0,5.100918 1.36024,7.481346 1.36025,2.210398 4.59083,3.400612 l -5.61101,17.853212 q -8.16147,-0.850153 -13.60245,-3.570642 -5.44098,-2.72049 -8.67156,-8.331499 -5.27095,6.291132 -13.43242,9.351682 -8.16147,2.89052 -16.32293,2.89052 -6.97126,0 -12.7523,-2.210397 -5.61101,-2.040368 -9.69174,-5.781041 -3.91071,-3.740673 -6.1211,-8.84159 -2.2104,-5.270949 -2.2104,-11.562081 0,-14.7926615 11.56208,-22.7840994 11.56208,-7.9914379 32.64587,-7.9914379 h 12.07218 v -3.2305817 q 0,-6.971254 -4.76086,-10.371866 -4.59083,-3.400612 -13.26239,-3.400612 -4.08073,0 -10.88196,1.190214 -6.80122,1.190215 -13.60244,3.570643 l -6.29114,-18.023243 q 8.8416,-3.400612 18.19328,-5.100918 9.52171,-1.700306 16.663,-1.700306 20.74373,0 30.43547,7.991438 9.69175,7.991438 9.69175,23.974314 z m -42.33762,9.691744 q 4.42079,0 9.01162,-2.550459 4.76086,-2.550459 7.14129,-7.311316 V 5.7644577 h -6.46117 q -11.22202,0 -16.49297,3.4006119 -5.10091,3.4006114 -5.10091,10.0318054 0,5.100917 3.23058,7.991438 3.40061,2.89052 8.67156,2.89052 z" />
      <path
         id="path43944"
         style="font-style:normal;font-variant:normal;font-weight:bold;font-stretch:normal;font-size:170.03059387px;line-height:1.25;font-family:'Fira Mono';-inkscape-font-specification:'Fira Mono Bold';letter-spacing:0px;fill:#f2f2f2;stroke:none;stroke-width:2.96564984"
         d="m 441.70928,46.5718 v -90.286245 h 23.80429 l 1.87033,10.371866 q 11.90215,-13.432417 28.05505,-13.432417 12.07217,0 18.36331,7.141285 6.46116,6.971254 6.46116,19.89358 V 46.5718 h -27.2049 v -58.660555 q 0,-8.161468 -1.87033,-11.392049 -1.70031,-3.230582 -6.6312,-3.230582 -4.25076,0 -7.99143,2.89052 -3.74068,2.89052 -7.65138,7.991438 V 46.5718 Z" />
    </g>
    <g
       id="text4811"
       style="font-style:normal;font-variant:normal;font-weight:normal;font-stretch:normal;font-size:197.70999146px;line-height:0%;font-family:Voltaire;-inkscape-font-specification:Voltaire;letter-spacing:0px;word-spacing:0px;fill:none;fill-opacity:1;stroke:#f2f2f2;stroke-width:4;stroke-linecap:butt;stroke-linejoin:bevel;stroke-miterlimit:4;stroke-dasharray:none;stroke-dashoffset:0;paint-order:normal"
       aria-label="Montgomery">
      <path
         id="path43947"
         style="font-size:197.70999146px;fill:none;stroke:#f2f2f2;stroke-width:4;stroke-miterlimit:4;stroke-dasharray:none"
         d="m 562.42195,-59.598465 q 0.39542,4.54733 0.59313,9.094659 0.39542,4.34962 0.59313,9.29237 0.39542,4.74504 0.59313,10.08321 0.19771,5.338169 0.19771,11.664889 v 8.30382 L 563.4105,46.5718 h -28.07482 l 7.71069,-137.013024 h 33.6107 l 14.43283,86.0038464 h 0.79084 l 14.03741,-86.0038464 h 33.61069 L 647.23953,46.5718 h -28.66794 l -1.58168,-58.324447 q -0.19771,-3.36107 -0.19771,-6.32672 v -5.73359 q 0,-5.338169 0,-9.885499 0.19771,-4.54733 0.39542,-8.69924 0.39542,-4.15191 0.79084,-8.30382 0.39542,-4.151909 0.79084,-8.896949 h -0.79084 l -14.43283,82.840486 h -24.71375 l -15.61909,-82.840486 z" />
      <path
         id="path43949"
         style="font-style:normal;font-variant:normal;font-weight:bold;font-stretch:normal;font-size:170.03059387px;line-height:1.25;font-family:'Fira Mono';-inkscape-font-specification:'Fira Mono Bold';letter-spacing:0px;fill:none;stroke:#f2f2f2;stroke-width:4;stroke-linecap:butt;stroke-linejoin:bevel;stroke-miterlimit:4;stroke-dasharray:none;stroke-dashoffset:0;paint-order:normal"
         d="m 701.53255,-46.774996 q 10.37187,0 18.53334,3.400612 8.3315,3.400612 13.94251,9.691744 5.61101,6.291132 8.50153,15.132723 3.06055,8.8415907 3.06055,19.7235487 0,22.7840993 -11.56208,35.5363943 -11.56208,12.752294 -32.47585,12.752294 -20.91376,0 -32.47584,-12.582264 -11.56208,-12.582264 -11.56208,-35.5363937 0,-10.7119275 2.89052,-19.5535183 3.06055,-9.011622 8.67156,-15.302753 5.78104,-6.291132 13.94251,-9.691744 8.16147,-3.570643 18.53333,-3.570643 z m 0,20.06361 q -8.16146,0 -12.07217,6.631193 -3.9107,6.631194 -3.9107,21.4238553 0,14.9626927 3.9107,21.5938857 3.91071,6.631193 12.07217,6.631193 8.16147,0 12.07218,-6.631193 3.9107,-6.631193 3.9107,-21.7639163 0,-14.6226307 -3.9107,-21.2538247 -3.91071,-6.631193 -12.07218,-6.631193 z" />
      <path
         id="path43951"
         style="font-style:normal;font-variant:normal;font-weight:bold;font-stretch:normal;font-size:170.03059387px;line-height:1.25;font-family:'Fira Mono';-inkscape-font-specification:'Fira Mono Bold';letter-spacing:0px;fill:none;stroke:#f2f2f2;stroke-width:4;stroke-linecap:butt;stroke-linejoin:bevel;stroke-miterlimit:4;stroke-dasharray:none;stroke-dashoffset:0;paint-order:normal"
         d="m 764.20742,46.5718 v -90.286245 h 23.80429 l 1.87033,10.371866 q 11.90214,-13.432417 28.05505,-13.432417 12.07217,0 18.3633,7.141285 6.46117,6.971254 6.46117,19.89358 V 46.5718 h -27.2049 v -58.660555 q 0,-8.161468 -1.87033,-11.392049 -1.70031,-3.230582 -6.6312,-3.230582 -4.25076,0 -7.99144,2.89052 -3.74067,2.89052 -7.65137,7.991438 V 46.5718 Z" />
      <path
         id="path43953"
         style="font-style:normal;font-variant:normal;font-weight:bold;font-stretch:normal;font-size:170.03059387px;line-height:1.25;font-family:'Fira Mono';-inkscape-font-specification:'Fira Mono Bold';letter-spacing:0px;fill:none;stroke:#f2f2f2;stroke-width:4;stroke-linecap:butt;stroke-linejoin:bevel;stroke-miterlimit:4;stroke-dasharray:none;stroke-dashoffset:0;paint-order:normal"
         d="m 948.6242,41.300852 q -5.44098,3.400612 -13.26239,5.78104 -7.65138,2.380428 -16.49297,2.380428 -17.85321,0 -26.52477,-9.011621 -8.50153,-9.181652 -8.50153,-24.824467 V -25.01108 h -18.8734 v -18.703365 h 18.8734 v -19.553518 l 27.20489,-3.230582 v 22.7841 h 29.07524 l -2.72049,18.703365 h -26.35475 v 40.637312 q 0,6.801224 3.06055,9.691744 3.06056,2.720489 9.69175,2.720489 4.76086,0 8.67156,-1.020183 3.9107,-1.190214 7.14128,-3.060551 z" />
      <path
         id="path43955"
         style="font-style:normal;font-variant:normal;font-weight:bold;font-stretch:normal;font-size:170.03059387px;line-height:1.25;font-family:'Fira Mono';-inkscape-font-specification:'Fira Mono Bold';letter-spacing:0px;fill:none;stroke:#f2f2f2;stroke-width:4;stroke-linecap:butt;stroke-linejoin:bevel;stroke-miterlimit:4;stroke-dasharray:none;stroke-dashoffset:0;paint-order:normal"
         d="m 985.9645,52.522871 q -0.51009,1.360245 -0.85015,2.72049 -0.34006,1.360244 -0.34006,2.720489 0,3.740673 4.4208,5.951071 4.59082,2.210398 15.47281,2.210398 6.6312,0 10.7119,-0.680123 4.0807,-0.680122 6.2911,-1.870336 2.3805,-1.190215 3.2306,-2.72049 0.8502,-1.530275 0.8502,-3.400612 0,-2.040367 -0.8502,-3.570642 -0.8501,-1.360245 -3.2306,-2.550459 -2.2104,-1.020184 -6.2911,-1.870337 -3.9107,-0.680122 -10.0318,-1.020183 -10.37187,-0.680123 -17.1731,-2.210398 -6.80122,-1.530275 -10.88196,-3.910704 -3.9107,-2.550459 -5.61101,-5.95107 -1.53027,-3.400612 -1.53027,-7.821408 0,-4.420795 2.55046,-8.331499 2.72049,-4.080734 7.31131,-7.141285 -7.14128,-4.2507646 -11.56208,-10.7119272 -4.25076,-6.6311931 -4.25076,-15.8128448 0,-7.481347 2.72049,-13.602448 2.72049,-6.121101 7.99144,-10.541897 5.27094,-4.420795 12.75229,-6.801223 7.48135,-2.380429 17.00309,-2.380429 14.7926,0 25.3345,-3.400612 10.5419,-3.570642 18.5334,-8.331499 l 6.6312,20.233641 q -4.9309,2.040367 -11.5621,2.720489 -6.6312,0.680123 -14.4526,0.680123 v 0.680122 q 7.6514,3.230581 11.9021,8.67156 4.2508,5.440979 4.2508,14.11254 0,6.4611623 -2.7205,12.07217189 -2.7205,5.44097901 -7.8214,9.52171311 -4.9309,3.910704 -12.2422,6.291132 -7.1413,2.210398 -15.9829,2.210398 -2.7205,0 -5.611,-0.170031 -2.72049,-0.340061 -5.61101,-1.020183 -2.04037,2.040367 -2.04037,4.080734 0,1.530275 0.68012,2.550459 0.68012,1.020183 3.23058,1.870336 2.55046,0.680123 7.48138,1.360245 5.1009,0.510092 13.6024,1.020184 17.1731,1.190214 26.0147,8.331499 8.8416,7.141285 8.8416,18.873396 0,7.141285 -3.4006,12.412233 -3.4006,5.440979 -9.6918,9.011622 -6.1211,3.740673 -15.1327,5.440979 -8.8416,1.870336 -20.0636,1.870336 -12.2422,0 -20.74373,-1.870336 -8.3315,-1.700306 -13.77248,-4.930888 -5.27095,-3.06055 -7.65138,-7.311315 -2.38043,-4.080734 -2.38043,-8.841591 0,-3.910704 0.85016,-7.311316 1.02018,-3.230581 3.9107,-6.631193 z m 5.61101,-66.481962 q 0,7.1412848 3.91071,11.0519884 3.9107,3.74067308 10.37188,3.74067308 6.2911,0 9.8618,-3.74067308 3.5706,-3.9107036 3.5706,-11.3920494 0,-14.11254 -13.4324,-14.11254 -6.46118,0 -10.37188,3.910704 -3.91071,3.740673 -3.91071,10.541897 z" />
      <path
         id="path43957"
         style="font-style:normal;font-variant:normal;font-weight:bold;font-stretch:normal;font-size:170.03059387px;line-height:1.25;font-family:'Fira Mono';-inkscape-font-specification:'Fira Mono Bold';letter-spacing:0px;fill:none;stroke:#f2f2f2;stroke-width:4;stroke-linecap:butt;stroke-linejoin:bevel;stroke-miterlimit:4;stroke-dasharray:none;stroke-dashoffset:0;paint-order:normal"
         d="m 1109.3403,-46.774996 q 10.3719,0 18.5333,3.400612 8.3315,3.400612 13.9425,9.691744 5.611,6.291132 8.5016,15.132723 3.0605,8.8415907 3.0605,19.7235487 0,22.7840993 -11.5621,35.5363943 -11.562,12.752294 -32.4758,12.752294 -20.9138,0 -32.4758,-12.582264 -11.5621,-12.582264 -11.5621,-35.5363937 0,-10.7119275 2.8905,-19.5535183 3.0605,-9.011622 8.6716,-15.302753 5.781,-6.291132 13.9425,-9.691744 8.1614,-3.570643 18.5333,-3.570643 z m 0,20.06361 q -8.1615,0 -12.0722,6.631193 -3.9107,6.631194 -3.9107,21.4238553 0,14.9626927 3.9107,21.5938857 3.9107,6.631193 12.0722,6.631193 8.1615,0 12.0722,-6.631193 3.9107,-6.631193 3.9107,-21.7639163 0,-14.6226307 -3.9107,-21.2538247 -3.9107,-6.631193 -12.0722,-6.631193 z" />
      <path
         id="path43959"
         style="font-style:normal;font-variant:normal;font-weight:bold;font-stretch:normal;font-size:170.03059387px;line-height:1.25;font-family:'Fira Mono';-inkscape-font-specification:'Fira Mono Bold';letter-spacing:0px;fill:none;stroke:#f2f2f2;stroke-width:4;stroke-linecap:butt;stroke-linejoin:bevel;stroke-miterlimit:4;stroke-dasharray:none;stroke-dashoffset:0;paint-order:normal"
         d="m 1164.7039,46.5718 v -90.286245 h 19.8936 l 1.8703,8.67156 q 4.2508,-5.78104 8.5015,-8.67156 4.4208,-3.060551 10.3719,-3.060551 5.1009,0 8.6715,2.550459 3.5707,2.550459 5.101,8.161469 4.0807,-4.760857 9.0116,-7.651377 4.9309,-3.060551 10.8819,-3.060551 9.6918,0 14.2826,6.291132 4.5908,6.291132 4.5908,20.233641 V 46.5718 h -23.2941 v -63.761472 q 0,-4.590827 -0.8502,-6.461163 -0.8502,-2.040367 -3.4006,-2.040367 -2.2104,0 -4.4208,1.190214 -2.2104,1.190214 -4.9309,4.590826 V 46.5718 h -19.0434 v -63.761472 q 0,-4.590827 -0.8502,-6.461163 -0.6801,-2.040367 -3.2306,-2.040367 -2.3804,0 -4.7608,1.530275 -2.2104,1.360245 -4.7609,4.760857 V 46.5718 Z" />
      <path
         id="path43961"
         style="font-style:normal;font-variant:normal;font-weight:bold;font-stretch:normal;font-size:170.03059387px;line-height:1.25;font-family:'Fira Mono';-inkscape-font-specification:'Fira Mono Bold';letter-spacing:0px;fill:none;stroke:#f2f2f2;stroke-width:4;stroke-linecap:butt;stroke-linejoin:bevel;stroke-miterlimit:4;stroke-dasharray:none;stroke-dashoffset:0;paint-order:normal"
         d="m 1297.6013,9.3351002 q 1.3603,11.0519888 7.1413,15.8128448 5.7811,4.590826 14.4526,4.590826 5.7811,0 11.2221,-1.870336 5.611,-1.870337 11.392,-6.291132 l 11.3921,15.472784 q -6.6312,5.270948 -15.8129,8.841591 -9.1816,3.570642 -20.2336,3.570642 -11.7321,0 -20.7438,-3.570642 -8.8416,-3.570643 -14.7926,-9.861775 -5.7811,-6.461162 -8.8416,-15.132722 -2.8905,-8.841591 -2.8905,-19.3834881 0,-10.0318051 2.8905,-18.7033649 2.8905,-8.841591 8.5015,-15.302754 5.611,-6.631193 13.7725,-10.371866 8.1615,-3.910704 18.7034,-3.910704 9.6917,0 17.5131,3.230581 7.9914,3.060551 13.6025,9.011622 5.611,5.951071 8.6715,14.622631 3.0606,8.67156 3.0606,19.55351832 0,2.38042828 -0.1701,5.10091778 0,2.5504589 -0.34,4.5908261 z m 16.323,-37.9168222 q -7.1413,0 -11.5621,5.270948 -4.2508,5.100918 -5.1009,16.3229372 h 32.8159 q -0.17,-9.6917442 -3.9107,-15.6428142 -3.5707,-5.951071 -12.2422,-5.951071 z" />
      <path
         id="path43963"
         style="font-style:normal;font-variant:normal;font-weight:bold;font-stretch:normal;font-size:170.03059387px;line-height:1.25;font-family:'Fira Mono';-inkscape-font-specification:'Fira Mono Bold';letter-spacing:0px;fill:none;stroke:#f2f2f2;stroke-width:4;stroke-linecap:butt;stroke-linejoin:bevel;stroke-miterlimit:4;stroke-dasharray:none;stroke-dashoffset:0;paint-order:normal"
         d="m 1445.6315,46.5718 h -68.8623 V 28.038465 h 18.7033 V -25.18111 h -18.7033 v -18.533335 h 42.8477 l 2.2104,16.833029 q 3.0605,-9.181652 9.6917,-14.28257 6.8012,-5.270949 15.1327,-5.270949 3.4006,0 5.7811,0.340062 2.5504,0.340061 5.4409,1.190214 l -4.4207,26.354742 q -2.5505,-0.850153 -5.101,-1.020184 -2.3804,-0.340061 -5.2709,-0.340061 -8.5015,0 -13.4324,5.951071 -4.7609,5.9510706 -6.9713,15.1327227 V 28.038465 h 22.9541 z" />
      <path
         id="path43965"
         style="font-style:normal;font-variant:normal;font-weight:bold;font-stretch:normal;font-size:170.03059387px;line-height:1.25;font-family:'Fira Mono';-inkscape-font-specification:'Fira Mono Bold';letter-spacing:0px;fill:none;stroke:#f2f2f2;stroke-width:4;stroke-linecap:butt;stroke-linejoin:bevel;stroke-miterlimit:4;stroke-dasharray:none;stroke-dashoffset:0;paint-order:normal"
         d="m 1470.7297,-43.714445 h 28.7352 l 17.003,71.58288 h 0.6801 l 18.5334,-71.58288 h 27.885 L 1533.471,46.5718 q -5.9511,18.193274 -18.0233,27.374926 -12.0721,9.351683 -32.8159,10.541897 l -3.0605,-19.213457 q 6.6312,-0.850153 11.222,-2.210398 4.7608,-1.360245 7.9914,-3.570643 3.4006,-2.210397 5.611,-5.440979 2.3805,-3.06055 4.2508,-7.481346 h -9.3517 z" />
    </g>
  </g>
</svg>
