<?xml version="1.0" encoding="UTF-8" standalone="no"?>
<svg
   xmlns:dc="http://purl.org/dc/elements/1.1/"
   xmlns:cc="http://creativecommons.org/ns#"
   xmlns:rdf="http://www.w3.org/1999/02/22-rdf-syntax-ns#"
   xmlns:svg="http://www.w3.org/2000/svg"
   xmlns="http://www.w3.org/2000/svg"
   version="1.1"
   id="svg2"
   height="280"
   width="1600">
  <defs
     id="defs4">
    <marker
       style="overflow:visible"
       id="marker8589"
       refX="0"
       refY="0"
       orient="auto">
      <path
         transform="matrix(0.4,0,0,0.4,2.96,0.4)"
         style="fill:#ffffff;fill-opacity:1;fill-rule:evenodd;stroke:#000000;stroke-width:1.00000003pt;stroke-opacity:1"
         d="m -2.5,-1 c 0,2.76 -2.24,5 -5,5 -2.76,0 -5,-2.24 -5,-5 0,-2.76 2.24,-5 5,-5 2.76,0 5,2.24 5,5 z"
         id="path8394" />
    </marker>
    <marker
       style="overflow:visible"
       id="marker8586"
       refX="0"
       refY="0"
       orient="auto">
      <path
         transform="matrix(0.8,0,0,0.8,5.92,0.8)"
         style="fill:#7d7d7d;fill-opacity:1;fill-rule:evenodd;stroke:#7d7d7d;stroke-width:1.00000003pt;stroke-opacity:1"
         d="m -2.5,-1 c 0,2.76 -2.24,5 -5,5 -2.76,0 -5,-2.24 -5,-5 0,-2.76 2.24,-5 5,-5 2.76,0 5,2.24 5,5 z"
         id="path8391" />
    </marker>
    <marker
       style="overflow:visible"
       id="DotS"
       refX="0"
       refY="0"
       orient="auto">
      <path
         transform="matrix(0.2,0,0,0.2,1.48,0.2)"
         style="fill-rule:evenodd;stroke:#000000;stroke-width:1.00000003pt"
         d="m -2.5,-1 c 0,2.76 -2.24,5 -5,5 -2.76,0 -5,-2.24 -5,-5 0,-2.76 2.24,-5 5,-5 2.76,0 5,2.24 5,5 z"
         id="path3855" />
    </marker>
    <marker
       style="overflow:visible"
       id="DotM"
       refX="0"
       refY="0"
       orient="auto">
      <path
         transform="matrix(0.4,0,0,0.4,2.96,0.4)"
         style="fill-rule:evenodd;stroke:#000000;stroke-width:1.00000003pt"
         d="m -2.5,-1 c 0,2.76 -2.24,5 -5,5 -2.76,0 -5,-2.24 -5,-5 0,-2.76 2.24,-5 5,-5 2.76,0 5,2.24 5,5 z"
         id="path3852" />
    </marker>
    <marker
       style="overflow:visible"
       id="DotL"
       refX="0"
       refY="0"
       orient="auto">
      <path
         transform="matrix(0.8,0,0,0.8,5.92,0.8)"
         style="fill-rule:evenodd;stroke:#000000;stroke-width:1.00000003pt"
         d="m -2.5,-1 c 0,2.76 -2.24,5 -5,5 -2.76,0 -5,-2.24 -5,-5 0,-2.76 2.24,-5 5,-5 2.76,0 5,2.24 5,5 z"
         id="path3849" />
    </marker>
  </defs>
  <metadata
     id="metadata7">
    <rdf:RDF>
      <cc:Work
         rdf:about="">
        <dc:format>image/svg+xml</dc:format>
        <dc:type
           rdf:resource="http://purl.org/dc/dcmitype/StillImage" />
        <dc:title></dc:title>
      </cc:Work>
    </rdf:RDF>
  </metadata>
  <g
     transform="translate(0,184)"
     style="display:inline;opacity:1"
     id="layer2">
    <g
       id="text39120"
       style="font-style:normal;font-variant:normal;font-weight:normal;font-stretch:normal;font-size:40px;line-height:125%;font-family:Raleway;-inkscape-font-specification:Raleway;letter-spacing:0px;word-spacing:0px;fill:#000000;fill-opacity:1;stroke:none;stroke-width:1px;stroke-linecap:butt;stroke-linejoin:miter;stroke-opacity:1"
       aria-label="Full-stack Web Developer">
      <path
         id="path44050"
         style="font-style:normal;font-variant:normal;font-weight:300;font-stretch:normal;font-size:126.66666412px;font-family:Raleway;-inkscape-font-specification:'Raleway Light';fill:#ffffff"
         d="m 98.344262,-64.829193 v -89.933327 h 58.519998 v 5.82666 h -52.06 v 35.72 h 44.20667 v 5.57333 h -44.20667 v 42.813337 z" />
      <path
         id="path44052"
         style="font-style:normal;font-variant:normal;font-weight:300;font-stretch:normal;font-size:126.66666412px;font-family:Raleway;-inkscape-font-specification:'Raleway Light';fill:#ffffff"
         d="m 187.8402,-63.562526 q -21.02667,0 -21.02667,-29.133333 v -38.000001 h 6.33333 v 37.113334 q 0,24.32 16.59334,24.32 4.18,0 8.10666,-1.393334 3.92667,-1.52 7.34667,-4.053333 3.42,-2.66 5.95333,-6.333333 2.66,-3.673333 4.18,-8.106667 v -41.546667 h 6.33334 v 57 q 0,3.166667 2.66,3.166667 v 5.7 q -0.63334,0.126667 -1.14,0.126667 -0.50667,0 -0.76,0 -2.53334,0 -4.56,-1.52 -1.9,-1.646667 -1.9,-4.306667 v -9.88 q -4.30667,7.98 -11.90667,12.413333 -7.47333,4.433334 -16.21333,4.433334 z" />
      <path
         id="path44054"
         style="font-style:normal;font-variant:normal;font-weight:300;font-stretch:normal;font-size:126.66666412px;font-family:Raleway;-inkscape-font-specification:'Raleway Light';fill:#ffffff"
         d="m 242.41968,-157.29586 h 6.46 v 79.42 q 0,3.673334 2.02667,5.826667 2.15333,2.153333 5.82666,2.153333 1.39334,0 3.29334,-0.253333 2.02666,-0.38 3.67333,-1.013333 l 1.26667,5.066666 q -2.15334,0.886667 -5.32,1.393334 -3.16667,0.633333 -5.44667,0.633333 -5.32,0 -8.61333,-3.166667 -3.16667,-3.293333 -3.16667,-8.74 z" />
      <path
         id="path44056"
         style="font-style:normal;font-variant:normal;font-weight:300;font-stretch:normal;font-size:126.66666412px;font-family:Raleway;-inkscape-font-specification:'Raleway Light';fill:#ffffff"
         d="m 275.32332,-157.29586 h 6.46 v 79.42 q 0,3.673334 2.02667,5.826667 2.15333,2.153333 5.82666,2.153333 1.39334,0 3.29334,-0.253333 2.02666,-0.38 3.67333,-1.013333 l 1.26667,5.066666 q -2.15334,0.886667 -5.32,1.393334 -3.16667,0.633333 -5.44667,0.633333 -5.32,0 -8.61333,-3.166667 -3.16667,-3.293333 -3.16667,-8.74 z" />
      <path
         id="path44058"
         style="font-style:normal;font-variant:normal;font-weight:300;font-stretch:normal;font-size:126.66666412px;font-family:Raleway;-inkscape-font-specification:'Raleway Light';fill:#ffffff"
         d="m 303.85301,-96.369192 v -5.826668 h 36.48 v 5.826668 z" />
      <path
         id="path44060"
         style="font-style:normal;font-variant:normal;font-weight:300;font-stretch:normal;font-size:126.66666412px;font-family:Raleway;-inkscape-font-specification:'Raleway Light';fill:#ffffff"
         d="m 379.58382,-63.562526 q -7.6,0 -14.56666,-2.533334 -6.96667,-2.533333 -12.16,-7.6 l 3.16667,-4.306666 q 5.32,4.813333 11.02,7.093333 5.69999,2.28 12.53999,2.28 8.61334,0 13.80667,-3.546667 5.32,-3.673333 5.32,-10.133333 0,-3.04 -1.39333,-5.066666 -1.26667,-2.153334 -3.92667,-3.546667 -2.66,-1.52 -6.58667,-2.66 -3.92666,-1.14 -9.12,-2.406666 -5.57333,-1.266667 -9.75333,-2.533334 -4.05333,-1.266666 -6.71333,-3.040004 -2.66,-1.77333 -4.05333,-4.30666 -1.26667,-2.53334 -1.26667,-6.46 0,-4.94 1.9,-8.61334 1.9,-3.67333 5.19333,-6.08 3.42,-2.40666 7.72667,-3.54666 4.43333,-1.26667 9.37333,-1.26667 7.72667,0 13.68,2.66 5.95333,2.53333 9.24667,6.58667 l -3.54667,3.42 q -3.29333,-3.8 -8.61333,-5.7 -5.19334,-1.9 -11.14667,-1.9 -3.67333,0 -6.96667,0.76 -3.16666,0.76 -5.57333,2.40666 -2.40666,1.64667 -3.8,4.30667 -1.39333,2.53333 -1.39333,6.08 0,2.91333 0.88667,4.68667 1.01333,1.77333 3.04,3.04 2.15333,1.26666 5.44666,2.28 3.29333,0.88666 7.85333,2.02666 6.20667,1.520004 11.02,2.913338 4.81334,1.393333 7.98,3.419999 3.29334,2.026667 4.94,4.813334 1.77334,2.786666 1.77334,7.093333 0,8.866666 -6.96667,14.186666 -6.84,5.193334 -18.36667,5.193334 z" />
      <path
         id="path44062"
         style="font-style:normal;font-variant:normal;font-weight:300;font-stretch:normal;font-size:126.66666412px;font-family:Raleway;-inkscape-font-specification:'Raleway Light';fill:#ffffff"
         d="m 448.92987,-67.99586 q -0.50667,0.253334 -1.77334,1.013334 -1.14,0.633333 -3.04,1.266666 -1.77333,0.633334 -4.05333,1.14 -2.28,0.506667 -4.94,0.506667 -2.66,0 -5.06667,-0.76 -2.28,-0.76 -4.05333,-2.28 -1.77333,-1.52 -2.78667,-3.673333 -1.01333,-2.153334 -1.01333,-5.066667 v -49.653337 h -9.24667 v -5.19333 h 9.24667 v -22.54666 h 6.33333 v 22.54666 h 15.32667 v 5.19333 h -15.32667 v 48.133337 q 0,3.673333 2.53334,5.573333 2.53333,1.773334 5.7,1.773334 3.92666,0 6.71333,-1.266667 2.91333,-1.393333 3.54667,-1.773333 z" />
      <path
         id="path44064"
         style="font-style:normal;font-variant:normal;font-weight:300;font-stretch:normal;font-size:126.66666412px;font-family:Raleway;-inkscape-font-specification:'Raleway Light';fill:#ffffff"
         d="m 476.32947,-63.562526 q -4.56,0 -8.48667,-1.52 -3.92666,-1.646667 -6.96666,-4.306667 -2.91334,-2.786667 -4.56,-6.46 -1.64667,-3.8 -1.64667,-8.106666 0,-4.306667 2.02667,-7.853334 2.02666,-3.546666 5.57333,-6.079999 3.67333,-2.659998 8.74,-4.053338 5.06667,-1.52 11.14667,-1.52 5.32,0 10.64,1.01334 5.44666,0.88666 9.75333,2.533331 v -6.460001 q 0,-9.37333 -5.32,-14.82 -5.32,-5.57333 -14.44,-5.57333 -4.81333,0 -10.26,2.02666 -5.32,2.02667 -10.89333,5.82667 l -2.40667,-4.30667 q 12.66667,-8.61333 24.06667,-8.61333 11.90666,0 18.74666,6.96667 6.84,6.84 6.84,19 v 32.17333 q 0,3.166667 2.78667,3.166667 v 5.7 q -0.63333,0.126667 -1.39333,0.126667 -0.63334,0.126666 -1.14,0.126666 -2.53334,0 -4.05334,-1.646666 -1.52,-1.773334 -1.77333,-4.18 v -5.446667 q -4.56,5.953333 -11.65333,9.12 -7.09334,3.166667 -15.32667,3.166667 z m 1.26667,-5.066667 q 7.34666,0 13.42666,-2.786667 6.20667,-2.786666 9.5,-7.346666 2.02667,-2.66 2.02667,-5.066667 v -11.653333 q -4.56,-1.773333 -9.5,-2.66 -4.94,-0.886666 -10.26,-0.886666 -4.94,0 -8.99333,1.14 -4.05334,1.013333 -6.96667,2.913333 -2.91333,1.9 -4.56,4.686666 -1.52,2.66 -1.52,5.953334 0,3.293333 1.26667,6.206666 1.26666,2.913333 3.54666,5.066667 2.28,2.026666 5.32,3.293333 3.16667,1.14 6.71334,1.14 z" />
      <path
         id="path44066"
         style="font-style:normal;font-variant:normal;font-weight:300;font-stretch:normal;font-size:126.66666412px;font-family:Raleway;-inkscape-font-specification:'Raleway Light';fill:#ffffff"
         d="m 523.58998,-98.015859 q 0,-6.966671 2.40667,-13.173331 2.40666,-6.20667 6.71333,-10.76667 4.30667,-4.56 10.26,-7.22 5.95333,-2.66 13.04667,-2.66 8.99333,0 15.83333,4.05333 6.84,4.05334 10.26,11.27334 l -6.20667,2.02666 q -2.91333,-5.44666 -8.36,-8.48666 -5.32,-3.16667 -11.78,-3.16667 -5.44666,0 -10.13333,2.15333 -4.68667,2.15334 -8.23333,5.95334 -3.42,3.8 -5.44667,8.99333 -2.02667,5.06667 -2.02667,11.020001 0,5.953333 2.02667,11.273333 2.15333,5.193333 5.57333,9.12 3.54667,3.8 8.23334,6.08 4.81333,2.28 10.13333,2.28 3.42,0 6.71333,-1.013334 3.42,-1.013333 6.20667,-2.66 2.91333,-1.646666 4.94,-3.8 2.15333,-2.279999 2.91333,-4.686666 l 6.20667,1.773333 q -1.26667,3.42 -3.92667,6.46 -2.53333,2.913333 -6.08,5.066667 -3.54666,2.153333 -7.85333,3.293333 -4.30667,1.266667 -8.86667,1.266667 -6.96666,0 -12.92,-2.66 -5.95333,-2.786667 -10.38666,-7.473334 -4.30667,-4.813333 -6.84,-11.019999 -2.40667,-6.206667 -2.40667,-13.3 z" />
      <path
         id="path44068"
         style="font-style:normal;font-variant:normal;font-weight:300;font-stretch:normal;font-size:126.66666412px;font-family:Raleway;-inkscape-font-specification:'Raleway Light';fill:#ffffff"
         d="m 644.80008,-64.829193 -25.71333,-35.213337 -15.58,14.313337 v 20.9 h -6.33333 v -92.466667 h 6.33333 v 64.600001 l 40.02667,-37.873331 h 7.34666 l -27.48666,26.72666 28.37333,39.013337 z" />
      <path
         id="path44070"
         style="font-style:normal;font-variant:normal;font-weight:300;font-stretch:normal;font-size:126.66666412px;font-family:Raleway;-inkscape-font-specification:'Raleway Light';fill:#ffffff"
         d="m 728.03197,-154.12919 h 6.33333 l 13.42667,32.68 13.42667,-32.68 h 6.33333 l -15.83333,37.87333 18.87333,43.826667 34.45333,-82.333327 h 7.09333 l -38.50666,89.933327 h -5.95333 l -19.76,-46.233337 -19.88667,46.233337 h -5.95333 l -38.38,-89.933327 h 6.96666 l 34.58,82.333327 18.62,-43.826667 z" />
      <path
         id="path44072"
         style="font-style:normal;font-variant:normal;font-weight:300;font-stretch:normal;font-size:126.66666412px;font-family:Raleway;-inkscape-font-specification:'Raleway Light';fill:#ffffff"
         d="m 843.61728,-63.562526 q -6.96666,0 -12.92,-2.66 -5.95333,-2.786667 -10.38666,-7.473334 -4.30667,-4.813333 -6.84,-11.019999 -2.40667,-6.206667 -2.40667,-13.3 0,-6.966671 2.40667,-13.046671 2.53333,-6.20666 6.84,-10.76666 4.30666,-4.68667 10.13333,-7.34667 5.95333,-2.66 12.79333,-2.66 6.96667,0 12.92,2.78667 5.95334,2.66 10.26,7.34666 4.30667,4.56 6.71334,10.76667 2.40666,6.08 2.40666,12.920001 0,0.633333 0,1.646667 0,0.886666 -0.12666,1.139999 h -57.76 q 0.38,5.7 2.66,10.64 2.28,4.813334 5.7,8.36 3.54666,3.546667 8.10666,5.573333 4.56,2.026667 9.75334,2.026667 3.42,0 6.71333,-0.886667 3.29333,-1.013333 6.08,-2.66 2.91333,-1.646666 5.06667,-3.926666 2.28,-2.406667 3.54666,-5.193333 l 5.57334,1.52 q -1.39334,3.546666 -4.18,6.586666 -2.66,2.913333 -6.33334,5.066667 -3.54666,2.153333 -7.85333,3.293333 -4.30667,1.266667 -8.86667,1.266667 z m 25.84,-36.733334 q -0.38,-5.82667 -2.66,-10.64 -2.15333,-4.81333 -5.7,-8.23333 -3.42,-3.54667 -7.98,-5.44667 -4.56,-2.02667 -9.75333,-2.02667 -5.19333,0 -9.75333,2.02667 -4.56,1.9 -8.10667,5.44667 -3.42,3.42 -5.57333,8.36 -2.02667,4.81333 -2.40667,10.51333 z" />
      <path
         id="path44074"
         style="font-style:normal;font-variant:normal;font-weight:300;font-stretch:normal;font-size:126.66666412px;font-family:Raleway;-inkscape-font-specification:'Raleway Light';fill:#ffffff"
         d="m 920.37526,-63.562526 q -7.72666,0 -14.44,-4.053334 -6.71333,-4.053333 -10.51333,-10.386666 v 13.173333 h -5.82667 v -92.466667 h 6.33334 v 40.91333 q 4.68666,-6.84 11.02,-11.14666 6.46,-4.30667 14.82,-4.30667 6.96666,0 12.54,3.04 5.7,2.91333 9.5,7.85333 3.92666,4.81334 5.95333,11.02 2.15333,6.08 2.15333,12.413338 0,6.839999 -2.40666,13.046666 -2.40667,6.08 -6.71334,10.766666 -4.18,4.56 -10.00666,7.346667 -5.7,2.786667 -12.41334,2.786667 z m -1.26666,-5.7 q 5.82666,0 10.64,-2.406667 4.81333,-2.406667 8.23333,-6.333333 3.54667,-4.053333 5.44667,-9.12 2.02666,-5.066667 2.02666,-10.386666 0,-5.573338 -1.9,-10.639998 -1.77333,-5.19334 -5.19333,-9.12 -3.29333,-4.05334 -7.98,-6.46 -4.56,-2.40667 -10.13333,-2.40667 -4.18,0 -7.85334,1.52 -3.67333,1.39333 -6.84,3.8 -3.04,2.40667 -5.57333,5.57333 -2.40667,3.16667 -4.05333,6.58667 v 21.786667 q 0.38,3.673334 2.78666,6.966667 2.40667,3.166666 5.7,5.573333 3.42,2.28 7.34667,3.673333 3.92667,1.393334 7.34667,1.393334 z" />
      <path
         id="path44076"
         style="font-style:normal;font-variant:normal;font-weight:300;font-stretch:normal;font-size:126.66666412px;font-family:Raleway;-inkscape-font-specification:'Raleway Light';fill:#ffffff"
         d="m 1001.5864,-64.829193 v -89.933327 h 29.8934 q 10.64,0 18.62,3.54666 8.1066,3.54667 13.4266,9.62667 5.32,6.08 7.98,14.31333 2.66,8.10667 2.66,17.35333 0,10.260004 -3.04,18.620004 -2.9133,8.233333 -8.4866,14.186666 -5.5734,5.826667 -13.5534,9.12 -7.8533,3.166667 -17.6066,3.166667 z m 66.12,-45.093337 q 0,-8.48666 -2.4066,-15.58 -2.4067,-7.22 -7.0934,-12.41333 -4.56,-5.19333 -11.2733,-8.10666 -6.7133,-2.91334 -15.4533,-2.91334 h -23.4334 v 78.28 h 23.4334 q 8.8666,0 15.58,-2.913333 6.84,-3.04 11.4,-8.36 4.56,-5.32 6.84,-12.413333 2.4066,-7.220004 2.4066,-15.580004 z" />
      <path
         id="path44078"
         style="font-style:normal;font-variant:normal;font-weight:300;font-stretch:normal;font-size:126.66666412px;font-family:Raleway;-inkscape-font-specification:'Raleway Light';fill:#ffffff"
         d="m 1117.9792,-63.562526 q -6.9666,0 -12.92,-2.66 -5.9533,-2.786667 -10.3866,-7.473334 -4.3067,-4.813333 -6.84,-11.019999 -2.4067,-6.206667 -2.4067,-13.3 0,-6.966671 2.4067,-13.046671 2.5333,-6.20666 6.84,-10.76666 4.3066,-4.68667 10.1333,-7.34667 5.9533,-2.66 12.7933,-2.66 6.9667,0 12.92,2.78667 5.9534,2.66 10.26,7.34666 4.3067,4.56 6.7134,10.76667 2.4066,6.08 2.4066,12.920001 0,0.633333 0,1.646667 0,0.886666 -0.1266,1.139999 h -57.76 q 0.38,5.7 2.66,10.64 2.28,4.813334 5.7,8.36 3.5466,3.546667 8.1066,5.573333 4.56,2.026667 9.7534,2.026667 3.42,0 6.7133,-0.886667 3.2933,-1.013333 6.08,-2.66 2.9133,-1.646666 5.0667,-3.926666 2.28,-2.406667 3.5466,-5.193333 l 5.5734,1.52 q -1.3934,3.546666 -4.18,6.586666 -2.66,2.913333 -6.3334,5.066667 -3.5466,2.153333 -7.8533,3.293333 -4.3067,1.266667 -8.8667,1.266667 z m 25.84,-36.733334 q -0.38,-5.82667 -2.66,-10.64 -2.1533,-4.81333 -5.7,-8.23333 -3.42,-3.54667 -7.98,-5.44667 -4.56,-2.02667 -9.7533,-2.02667 -5.1933,0 -9.7533,2.02667 -4.56,1.9 -8.1067,5.44667 -3.42,3.42 -5.5733,8.36 -2.0267,4.81333 -2.4067,10.51333 z" />
      <path
         id="path44080"
         style="font-style:normal;font-variant:normal;font-weight:300;font-stretch:normal;font-size:126.66666412px;font-family:Raleway;-inkscape-font-specification:'Raleway Light';fill:#ffffff"
         d="m 1182.4922,-64.829193 -27.4867,-65.866667 h 6.5867 l 24.32,59.533334 24.4466,-59.533334 h 6.2067 l -27.4867,65.866667 z" />
      <path
         id="path44082"
         style="font-style:normal;font-variant:normal;font-weight:300;font-stretch:normal;font-size:126.66666412px;font-family:Raleway;-inkscape-font-specification:'Raleway Light';fill:#ffffff"
         d="m 1254.7892,-63.562526 q -6.9667,0 -12.92,-2.66 -5.9534,-2.786667 -10.3867,-7.473334 -4.3067,-4.813333 -6.84,-11.019999 -2.4067,-6.206667 -2.4067,-13.3 0,-6.966671 2.4067,-13.046671 2.5333,-6.20666 6.84,-10.76666 4.3067,-4.68667 10.1333,-7.34667 5.9534,-2.66 12.7934,-2.66 6.9666,0 12.92,2.78667 5.9533,2.66 10.26,7.34666 4.3066,4.56 6.7133,10.76667 2.4067,6.08 2.4067,12.920001 0,0.633333 0,1.646667 0,0.886666 -0.1267,1.139999 h -57.76 q 0.38,5.7 2.66,10.64 2.28,4.813334 5.7,8.36 3.5467,3.546667 8.1067,5.573333 4.56,2.026667 9.7533,2.026667 3.42,0 6.7133,-0.886667 3.2934,-1.013333 6.08,-2.66 2.9134,-1.646666 5.0667,-3.926666 2.28,-2.406667 3.5467,-5.193333 l 5.5733,1.52 q -1.3933,3.546666 -4.18,6.586666 -2.66,2.913333 -6.3333,5.066667 -3.5467,2.153333 -7.8534,3.293333 -4.3066,1.266667 -8.8666,1.266667 z m 25.84,-36.733334 q -0.38,-5.82667 -2.66,-10.64 -2.1534,-4.81333 -5.7,-8.23333 -3.42,-3.54667 -7.98,-5.44667 -4.56,-2.02667 -9.7534,-2.02667 -5.1933,0 -9.7533,2.02667 -4.56,1.9 -8.1067,5.44667 -3.42,3.42 -5.5733,8.36 -2.0267,4.81333 -2.4067,10.51333 z" />
      <path
         id="path44084"
         style="font-style:normal;font-variant:normal;font-weight:300;font-stretch:normal;font-size:126.66666412px;font-family:Raleway;-inkscape-font-specification:'Raleway Light';fill:#ffffff"
         d="m 1301.2738,-157.29586 h 6.46 v 79.42 q 0,3.673334 2.0267,5.826667 2.1533,2.153333 5.8266,2.153333 1.3934,0 3.2934,-0.253333 2.0266,-0.38 3.6733,-1.013333 l 1.2667,5.066666 q -2.1534,0.886667 -5.32,1.393334 -3.1667,0.633333 -5.4467,0.633333 -5.32,0 -8.6133,-3.166667 -3.1667,-3.293333 -3.1667,-8.74 z" />
      <path
         id="path44086"
         style="font-style:normal;font-variant:normal;font-weight:300;font-stretch:normal;font-size:126.66666412px;font-family:Raleway;-inkscape-font-specification:'Raleway Light';fill:#ffffff"
         d="m 1361.2842,-63.562526 q -6.9667,0 -12.92,-2.66 -5.8267,-2.786667 -10.1334,-7.473334 -4.3066,-4.686666 -6.7133,-10.893333 -2.4067,-6.206666 -2.4067,-13.046666 0,-6.966671 2.4067,-13.173331 2.5333,-6.20667 6.84,-10.89334 4.3067,-4.68666 10.1333,-7.34666 5.9534,-2.78667 12.7934,-2.78667 6.84,0 12.6666,2.78667 5.8267,2.66 10.1334,7.34666 4.4333,4.68667 6.84,10.89334 2.5333,6.20666 2.5333,13.173331 0,6.84 -2.5333,13.046666 -2.4067,6.206667 -6.7134,10.893333 -4.3066,4.686667 -10.26,7.473334 -5.8266,2.66 -12.6666,2.66 z m -25.84,-33.82 q 0,5.826667 2.0266,11.02 2.0267,5.066667 5.4467,8.866666 3.5467,3.8 8.2333,6.08 4.6867,2.153334 10.0067,2.153334 5.32,0 10.0067,-2.153334 4.6866,-2.28 8.2333,-6.206666 3.5467,-3.926667 5.5733,-8.993333 2.0267,-5.193334 2.0267,-11.146667 0,-5.826664 -2.0267,-10.893334 -2.0266,-5.19333 -5.5733,-8.99333 -3.5467,-3.92667 -8.2333,-6.20667 -4.56,-2.28 -9.88,-2.28 -5.32,0 -10.0067,2.28 -4.6867,2.28 -8.2333,6.20667 -3.42,3.92666 -5.5734,9.24666 -2.0266,5.19334 -2.0266,11.020004 z" />
      <path
         id="path44088"
         style="font-style:normal;font-variant:normal;font-weight:300;font-stretch:normal;font-size:126.66666412px;font-family:Raleway;-inkscape-font-specification:'Raleway Light';fill:#ffffff"
         d="m 1440.8051,-63.562526 q -8.4867,0 -15.2,-4.433334 -6.5867,-4.56 -10.64,-11.019999 v 41.166665 h -6.3333 v -92.846666 h 5.8266 v 13.17333 q 4.0534,-6.33333 10.64,-10.26 6.7134,-4.05333 14.3134,-4.05333 6.84,0 12.6666,2.91333 5.8267,2.91334 10.0067,7.72667 4.18,4.68667 6.46,10.89333 2.4067,6.20667 2.4067,12.666671 0,6.84 -2.1534,13.046666 -2.1533,6.206667 -6.2066,10.893333 -3.9267,4.686667 -9.5,7.473334 -5.5734,2.66 -12.2867,2.66 z m -1.52,-5.7 q 5.7,0 10.3867,-2.406667 4.6866,-2.406667 7.98,-6.333333 3.2933,-4.053333 5.0666,-9.12 1.7734,-5.193333 1.7734,-10.513333 0,-5.700001 -2.0267,-10.766671 -2.0267,-5.19333 -5.7,-9.12 -3.5467,-3.92666 -8.36,-6.20666 -4.8133,-2.40667 -10.26,-2.40667 -3.42,0 -7.3467,1.52 -3.8,1.39333 -7.22,3.92667 -3.42,2.40666 -5.8266,5.57333 -2.4067,3.16667 -2.7867,6.71333 v 21.660004 q 1.6467,3.673333 4.18,6.84 2.5333,3.166666 5.7,5.573333 3.1667,2.406667 6.84,3.8 3.6733,1.266667 7.6,1.266667 z" />
      <path
         id="path44090"
         style="font-style:normal;font-variant:normal;font-weight:300;font-stretch:normal;font-size:126.66666412px;font-family:Raleway;-inkscape-font-specification:'Raleway Light';fill:#ffffff"
         d="m 1514.0599,-63.562526 q -6.9667,0 -12.92,-2.66 -5.9533,-2.786667 -10.3867,-7.473334 -4.3066,-4.813333 -6.84,-11.019999 -2.4066,-6.206667 -2.4066,-13.3 0,-6.966671 2.4066,-13.046671 2.5334,-6.20666 6.84,-10.76666 4.3067,-4.68667 10.1334,-7.34667 5.9533,-2.66 12.7933,-2.66 6.9667,0 12.92,2.78667 5.9533,2.66 10.26,7.34666 4.3067,4.56 6.7133,10.76667 2.4067,6.08 2.4067,12.920001 0,0.633333 0,1.646667 0,0.886666 -0.1267,1.139999 h -57.76 q 0.38,5.7 2.66,10.64 2.28,4.813334 5.7,8.36 3.5467,3.546667 8.1067,5.573333 4.56,2.026667 9.7533,2.026667 3.42,0 6.7134,-0.886667 3.2933,-1.013333 6.08,-2.66 2.9133,-1.646666 5.0666,-3.926666 2.28,-2.406667 3.5467,-5.193333 l 5.5733,1.52 q -1.3933,3.546666 -4.18,6.586666 -2.66,2.913333 -6.3333,5.066667 -3.5467,2.153333 -7.8533,3.293333 -4.3067,1.266667 -8.8667,1.266667 z m 25.84,-36.733334 q -0.38,-5.82667 -2.66,-10.64 -2.1533,-4.81333 -5.7,-8.23333 -3.42,-3.54667 -7.98,-5.44667 -4.56,-2.02667 -9.7533,-2.02667 -5.1934,0 -9.7534,2.02667 -4.56,1.9 -8.1066,5.44667 -3.42,3.42 -5.5734,8.36 -2.0266,4.81333 -2.4066,10.51333 z" />
      <path
         id="path44092"
         style="font-style:normal;font-variant:normal;font-weight:300;font-stretch:normal;font-size:126.66666412px;font-family:Raleway;-inkscape-font-specification:'Raleway Light';fill:#ffffff"
         d="m 1591.198,-124.99586 q -8.8667,0.25333 -15.58,5.32 -6.5867,4.94 -9.2467,13.68 v 41.166667 h -6.3333 v -65.866667 h 6.08 v 16.21333 q 3.42,-6.96666 8.9933,-11.27333 5.7,-4.43333 12.16,-5.06667 1.2667,-0.12666 2.28,-0.12666 1.0134,0 1.6467,0 z" />
    </g>
    <g
       id="text39143"
       style="font-style:normal;font-variant:normal;font-weight:normal;font-stretch:normal;font-size:40px;line-height:125%;font-family:Raleway;-inkscape-font-specification:Raleway;letter-spacing:0px;word-spacing:0px;fill:#000000;fill-opacity:1;stroke:none;stroke-width:1px;stroke-linecap:butt;stroke-linejoin:miter;stroke-opacity:1"
       aria-label="UX Designer">
      <path
         id="path44095"
         style="font-style:normal;font-variant:normal;font-weight:500;font-stretch:normal;font-size:126.66666412px;font-family:Raleway;-inkscape-font-specification:'Raleway Medium';fill:#ffffff"
         d="m 134.31759,58.126668 q 7.85334,0 13.04667,-3.04 5.19333,-3.04 8.23333,-7.853334 3.16667,-4.939999 4.43334,-11.146666 1.26666,-6.333333 1.26666,-12.793333 v -45.473332 h 11.4 v 45.473332 q 0,9.12 -2.15333,17.353333 -2.02667,8.106666 -6.58667,14.313333 -4.56,6.206667 -11.90666,9.88 -7.22,3.546666 -17.60667,3.546666 -10.76667,0 -18.11333,-3.8 -7.34667,-3.799999 -11.90667,-10.006666 -4.433331,-6.333333 -6.459998,-14.44 -1.9,-8.233333 -1.9,-16.846666 v -45.473332 h 11.399998 v 45.473332 q 0,6.713333 1.26667,13.046666 1.39333,6.206667 4.43333,11.02 3.16667,4.813333 8.23334,7.853333 5.19333,2.913334 12.91999,2.913334 z" />
      <path
         id="path44097"
         style="font-style:normal;font-variant:normal;font-weight:500;font-stretch:normal;font-size:126.66666412px;font-family:Raleway;-inkscape-font-specification:'Raleway Medium';fill:#ffffff"
         d="m 195.35312,-22.179997 27.36,37.493332 27.36,-37.493332 h 12.53999 l -33.81999,45.599999 32.80666,44.333332 h -12.54 L 222.71312,31.526668 196.36645,67.753334 h -12.66667 l 32.80667,-44.333332 -33.82,-45.599999 z" />
      <path
         id="path44099"
         style="font-style:normal;font-variant:normal;font-weight:500;font-stretch:normal;font-size:126.66666412px;font-family:Raleway;-inkscape-font-specification:'Raleway Medium';fill:#ffffff"
         d="m 304.40124,67.753334 v -89.933331 h 31.16 q 10.76667,0 18.87333,3.546666 8.23334,3.546667 13.68,9.6266666 5.44667,6.0799999 8.10667,14.313333 2.78667,8.1066664 2.78667,17.3533334 0,10.259999 -3.04,18.619999 -3.04,8.233333 -8.74,14.186667 -5.7,5.826666 -13.80667,9.119999 -7.98,3.166667 -17.86,3.166667 z m 63.08,-45.093332 q 0,-7.6 -2.15333,-13.9333334 -2.02667,-6.4599999 -6.20667,-11.0199998 -4.05333,-4.5599999 -10.00667,-7.0933332 -5.95333,-2.6599996 -13.55333,-2.6599996 h -19.76 v 69.666665 h 19.76 q 7.72667,0 13.68,-2.66 6.08,-2.66 10.00667,-7.346667 4.05333,-4.686666 6.08,-11.019999 2.15333,-6.46 2.15333,-13.933333 z" />
      <path
         id="path44101"
         style="font-style:normal;font-variant:normal;font-weight:500;font-stretch:normal;font-size:126.66666412px;font-family:Raleway;-inkscape-font-specification:'Raleway Medium';fill:#ffffff"
         d="m 422.68216,69.020001 q -7.47334,0 -13.68,-2.66 -6.20667,-2.786667 -10.64,-7.473333 -4.43333,-4.686667 -6.96667,-10.893334 -2.40666,-6.333333 -2.40666,-13.299999 0,-6.966667 2.40666,-13.173333 2.53334,-6.206667 6.96667,-10.893333 4.56,-4.686667 10.76666,-7.346667 6.20667,-2.7866666 13.68,-2.7866666 7.47334,0 13.55334,2.7866666 6.20666,2.7866666 10.51333,7.473333 4.30667,4.56 6.58667,10.766667 2.40666,6.08 2.40666,12.666666 0,1.393333 -0.12666,2.533333 0,1.14 -0.12667,1.773334 h -54.84666 q 0.38,4.94 2.28,8.993333 1.89999,4.053333 4.93999,6.966666 3.04,2.913334 6.84,4.56 3.92667,1.646667 8.23334,1.646667 3.04,0 5.95333,-0.76 2.91333,-0.886667 5.44667,-2.28 2.53333,-1.393333 4.43333,-3.42 2.02667,-2.026667 3.04,-4.56 l 9.62667,2.66 q -1.64667,3.673333 -4.56,6.713333 -2.78667,3.04 -6.58667,5.32 -3.67333,2.153333 -8.23333,3.42 -4.56,1.266667 -9.5,1.266667 z m 22.67333,-38.76 q -0.38,-4.686666 -2.40667,-8.613333 -1.9,-4.053333 -4.94,-6.84 -2.91333,-2.786666 -6.84,-4.306666 -3.92666,-1.6466668 -8.36,-1.6466668 -4.43333,0 -8.36,1.6466668 -3.92666,1.52 -6.96666,4.433333 -2.91334,2.786667 -4.81333,6.713333 -1.77334,3.926667 -2.15334,8.613333 z" />
      <path
         id="path44103"
         style="font-style:normal;font-variant:normal;font-weight:500;font-stretch:normal;font-size:126.66666412px;font-family:Raleway;-inkscape-font-specification:'Raleway Medium';fill:#ffffff"
         d="m 491.5631,69.020001 q -7.98,0 -15.70667,-2.406667 -7.72667,-2.533333 -13.3,-7.22 l 4.81333,-7.473333 q 5.82667,4.433333 11.65334,6.713333 5.82666,2.153334 12.28666,2.153334 7.22,0 11.4,-2.786667 4.30667,-2.913333 4.30667,-8.106667 0,-2.406666 -1.14,-4.053333 -1.14,-1.773333 -3.42,-3.04 -2.28,-1.266666 -5.82667,-2.28 -3.54666,-1.013333 -8.23333,-2.153333 -5.95333,-1.52 -10.26,-2.913333 -4.30667,-1.393334 -7.09333,-3.293334 -2.78667,-1.9 -4.05334,-4.559999 -1.26666,-2.66 -1.26666,-6.586667 0,-4.94 1.9,-8.74 2.02666,-3.9266664 5.44666,-6.4599997 3.42,-2.66 7.98,-3.9266666 4.68667,-1.3933333 10.00667,-1.3933333 7.47333,0 13.93333,2.4066666 6.46,2.4066666 10.89334,6.3333332 l -5.06667,6.7133328 q -4.18,-3.673333 -9.37333,-5.446666 -5.19334,-1.9000001 -10.64,-1.9000001 -6.08,0 -10.38667,2.6600001 -4.18,2.533333 -4.18,8.233333 0,2.28 0.76,3.8 0.88667,1.52 2.78667,2.66 1.9,1.14 4.81333,2.026667 3.04,0.886666 7.22,1.899999 6.58667,1.52 11.4,3.166667 4.94,1.52 8.10667,3.673333 3.29333,2.153334 4.81333,5.066667 1.64667,2.913333 1.64667,7.093333 0,9.246667 -7.09334,14.693333 -7.09333,5.446667 -19.12666,5.446667 z" />
      <path
         id="path44105"
         style="font-style:normal;font-variant:normal;font-weight:500;font-stretch:normal;font-size:126.66666412px;font-family:Raleway;-inkscape-font-specification:'Raleway Medium';fill:#ffffff"
         d="M 530.97425,67.753334 V 1.6333354 h 11.14667 V 67.753334 Z m 0,-78.533332 v -13.933333 h 11.14667 v 13.933333 z" />
      <path
         id="path44107"
         style="font-style:normal;font-variant:normal;font-weight:500;font-stretch:normal;font-size:126.66666412px;font-family:Raleway;-inkscape-font-specification:'Raleway Medium';fill:#ffffff"
         d="m 586.51364,68.513334 q -6.71334,0 -12.41334,-2.786667 -5.57333,-2.786666 -9.62666,-7.473333 -4.05334,-4.686666 -6.33334,-10.766666 -2.15333,-6.08 -2.15333,-12.666667 0,-6.966666 2.15333,-13.173333 2.28,-6.333333 6.33334,-11.019999 4.05333,-4.686667 9.62666,-7.346667 5.7,-2.7866666 12.54,-2.7866666 8.36,0 14.44,4.0533332 6.08,4.0533333 10.26,10.2599994 V 1.6333354 h 9.88 V 66.993334 q 0,7.093333 -2.66,12.413333 -2.66,5.446667 -7.22,9.12 Q 606.7803,92.2 600.57364,94.1 q -6.08,1.9 -13.04667,1.9 -11.27333,0 -18.36667,-3.926666 -6.96666,-3.8 -11.65333,-10.64 l 6.46,-5.7 q 3.92667,5.826666 10.13333,8.74 6.20667,2.913333 13.42667,2.913333 4.56,0 8.61333,-1.266667 4.18,-1.266666 7.22,-3.8 3.04,-2.533333 4.81334,-6.333333 1.9,-3.8 1.9,-8.993333 V 55.340001 q -1.9,3.04 -4.56,5.573333 -2.53334,2.406667 -5.57334,4.18 -3.04,1.646667 -6.46,2.533333 -3.42,0.886667 -6.96666,0.886667 z m 3.42,-9.12 q 3.54666,0 6.84,-1.266666 3.29333,-1.266667 6.08,-3.293334 2.78666,-2.153333 4.68666,-4.813333 1.9,-2.66 2.53334,-5.446666 v -19 q -1.39334,-3.42 -3.67334,-6.206667 -2.15333,-2.786666 -4.94,-4.813333 -2.78666,-2.153333 -6.08,-3.293333 -3.16666,-1.14 -6.46,-1.14 -5.06666,0 -9.12,2.153333 -3.92666,2.153333 -6.71333,5.7 -2.78667,3.546667 -4.30667,8.106667 -1.52,4.433333 -1.52,8.993333 0,4.94 1.77334,9.373333 1.77333,4.433333 4.81333,7.726666 3.04,3.293334 7.09333,5.32 4.18,1.9 8.99334,1.9 z" />
      <path
         id="path44109"
         style="font-style:normal;font-variant:normal;font-weight:500;font-stretch:normal;font-size:126.66666412px;font-family:Raleway;-inkscape-font-specification:'Raleway Medium';fill:#ffffff"
         d="M 696.46622,67.753334 H 685.31955 V 30.766668 q 0,-10.64 -3.29333,-15.453333 -3.16667,-4.813333 -9.75333,-4.813333 -3.42,0 -6.84,1.393333 -3.42,1.266667 -6.46,3.546667 -3.04,2.28 -5.32,5.446666 -2.28,3.166667 -3.42,6.966667 V 67.753334 H 639.08622 V 1.6333354 h 10.13333 V 15.820002 q 3.92667,-6.9666668 11.27334,-11.1466667 7.47333,-4.1799999 16.21333,-4.1799999 5.7,0 9.5,2.1533333 3.8,2.0266666 6.08,5.8266665 2.28,3.6733328 3.16667,8.7399998 1.01333,5.066667 1.01333,11.02 z" />
      <path
         id="path44111"
         style="font-style:normal;font-variant:normal;font-weight:500;font-stretch:normal;font-size:126.66666412px;font-family:Raleway;-inkscape-font-specification:'Raleway Medium';fill:#ffffff"
         d="m 743.05978,69.020001 q -7.47333,0 -13.68,-2.66 -6.20666,-2.786667 -10.64,-7.473333 -4.43333,-4.686667 -6.96666,-10.893334 -2.40667,-6.333333 -2.40667,-13.299999 0,-6.966667 2.40667,-13.173333 2.53333,-6.206667 6.96666,-10.893333 4.56,-4.686667 10.76667,-7.346667 6.20667,-2.7866666 13.68,-2.7866666 7.47333,0 13.55333,2.7866666 6.20667,2.7866666 10.51334,7.473333 4.30666,4.56 6.58666,10.766667 2.40667,6.08 2.40667,12.666666 0,1.393333 -0.12667,2.533333 0,1.14 -0.12666,1.773334 h -54.84667 q 0.38,4.94 2.28,8.993333 1.9,4.053333 4.94,6.966666 3.04,2.913334 6.84,4.56 3.92667,1.646667 8.23333,1.646667 3.04,0 5.95334,-0.76 2.91333,-0.886667 5.44666,-2.28 2.53334,-1.393333 4.43334,-3.42 2.02666,-2.026667 3.04,-4.56 l 9.62666,2.66 q -1.64666,3.673333 -4.56,6.713333 -2.78666,3.04 -6.58666,5.32 -3.67334,2.153333 -8.23334,3.42 -4.56,1.266667 -9.5,1.266667 z m 22.67334,-38.76 q -0.38,-4.686666 -2.40667,-8.613333 -1.9,-4.053333 -4.94,-6.84 -2.91333,-2.786666 -6.84,-4.306666 -3.92667,-1.6466668 -8.36,-1.6466668 -4.43333,0 -8.36,1.6466668 -3.92667,1.52 -6.96667,4.433333 -2.91333,2.786667 -4.81333,6.713333 -1.77333,3.926667 -2.15333,8.613333 z" />
      <path
         id="path44113"
         style="font-style:normal;font-variant:normal;font-weight:500;font-stretch:normal;font-size:126.66666412px;font-family:Raleway;-inkscape-font-specification:'Raleway Medium';fill:#ffffff"
         d="m 823.72072,11.386669 q -8.36,0.253333 -14.82,4.306666 -6.33333,4.053333 -8.99333,11.273333 V 67.753334 H 788.76072 V 1.6333354 h 10.38667 V 16.960002 q 3.42,-6.84 8.99333,-11.02 5.57333,-4.3066666 11.90667,-4.8133333 1.26666,0 2.15333,0 0.88667,0 1.52,0.1266667 z" />
    </g>
    <g
       id="text39147"
       style="font-style:normal;font-variant:normal;font-weight:normal;font-stretch:normal;font-size:40px;line-height:125%;font-family:Raleway;-inkscape-font-specification:Raleway;letter-spacing:0px;word-spacing:0px;fill:#ffffff;fill-opacity:0.39215686;stroke:none;stroke-width:1px;stroke-linecap:butt;stroke-linejoin:miter;stroke-opacity:1"
       aria-label="&amp;">
      <path
         id="path44116"
         style="font-style:normal;font-variant:normal;font-weight:300;font-stretch:normal;font-size:126.66666412px;font-family:Raleway;-inkscape-font-specification:'Raleway Light';fill:#ffffff;fill-opacity:0.39215686"
         d="M 76.188657,67.753334 64.661991,55.720001 q -5.193333,6.08 -12.16,9.753333 -6.966666,3.546667 -15.453333,3.546667 -5.573333,0 -10.766666,-1.646667 -5.066667,-1.646667 -8.993333,-4.686667 -3.926667,-3.166666 -6.206667,-7.473333 -2.28,-4.433333 -2.28,-10.006666 0,-4.56 1.52,-8.36 1.646667,-3.926667 4.306667,-7.093333 2.786666,-3.293333 6.333333,-6.206667 3.673333,-2.913333 7.726666,-5.573333 -3.546666,-3.8 -6.08,-6.84 -2.406666,-3.1666664 -3.926666,-5.6999997 -1.52,-2.5333333 -2.28,-4.81333324 -0.633333,-2.40666666 -0.633333,-4.68666656 0,-3.9266666 1.646666,-7.3466665 1.773333,-3.546667 4.686667,-6.206667 2.913333,-2.66 6.966666,-4.179999 4.053334,-1.52 8.74,-1.52 4.306667,0 7.98,1.393333 3.673333,1.266666 6.333333,3.546666 2.786667,2.28 4.306667,5.446667 1.52,3.1666666 1.52,6.8399999 0,3.7999999 -1.646667,7.2199998 -1.646667,3.2933333 -4.56,6.3333332 -2.786666,2.9133331 -6.586666,5.7000001 -3.673334,2.66 -7.726667,5.446666 l 27.106666,28.12 q 2.786667,-4.94 4.306667,-10.766667 1.52,-5.953333 1.52,-12.286666 h 5.573333 q -0.253333,15.2 -7.6,27.106666 l 16.34,16.973333 z M 37.808658,63.826667 q 7.22,0 13.046667,-3.166666 5.826666,-3.293333 10.133333,-8.74 L 32.361992,21.900002 q -3.673334,2.533333 -6.84,5.066666 -3.04,2.533333 -5.446667,5.446667 -2.406666,2.786666 -3.8,6.08 -1.266666,3.166666 -1.266666,6.966666 0,4.56 2.026666,7.98 2.026667,3.42 5.193333,5.826667 3.293334,2.28 7.346667,3.419999 4.18,1.14 8.233333,1.14 z M 21.721992,-4.1933312 q 0,1.6466667 0.38,3.29333329 0.506666,1.64666663 1.773333,3.79999991 1.393333,2.1533333 3.673333,5.0666666 2.406667,2.7866664 6.08,6.7133334 8.36,-5.4466668 13.426667,-10.0066667 5.066666,-4.68666656 5.066666,-10.5133331 0,-5.3200002 -4.053333,-8.7400002 -4.053333,-3.546666 -10.386667,-3.546666 -3.419999,0 -6.333333,1.14 -2.913333,1.14 -5.066666,3.04 -2.153334,1.9 -3.42,4.4333329 -1.14,2.5333333 -1.14,5.3199999 z" />
    </g>
  </g>
</svg>
