<?xml version="1.0" encoding="UTF-8" standalone="no"?>
<svg
   xmlns:dc="http://purl.org/dc/elements/1.1/"
   xmlns:cc="http://creativecommons.org/ns#"
   xmlns:rdf="http://www.w3.org/1999/02/22-rdf-syntax-ns#"
   xmlns:svg="http://www.w3.org/2000/svg"
   xmlns="http://www.w3.org/2000/svg"
   version="1.1"
   id="svg2"
   height="102"
   width="780">
  <defs
     id="defs4">
    <marker
       style="overflow:visible"
       id="marker8589"
       refX="0"
       refY="0"
       orient="auto">
      <path
         transform="matrix(0.4,0,0,0.4,2.96,0.4)"
         style="fill:#ffffff;fill-opacity:1;fill-rule:evenodd;stroke:#000000;stroke-width:1.00000003pt;stroke-opacity:1"
         d="m -2.5,-1 c 0,2.76 -2.24,5 -5,5 -2.76,0 -5,-2.24 -5,-5 0,-2.76 2.24,-5 5,-5 2.76,0 5,2.24 5,5 z"
         id="path8394" />
    </marker>
    <marker
       style="overflow:visible"
       id="marker8586"
       refX="0"
       refY="0"
       orient="auto">
      <path
         transform="matrix(0.8,0,0,0.8,5.92,0.8)"
         style="fill:#7d7d7d;fill-opacity:1;fill-rule:evenodd;stroke:#7d7d7d;stroke-width:1.00000003pt;stroke-opacity:1"
         d="m -2.5,-1 c 0,2.76 -2.24,5 -5,5 -2.76,0 -5,-2.24 -5,-5 0,-2.76 2.24,-5 5,-5 2.76,0 5,2.24 5,5 z"
         id="path8391" />
    </marker>
    <marker
       style="overflow:visible"
       id="DotS"
       refX="0"
       refY="0"
       orient="auto">
      <path
         transform="matrix(0.2,0,0,0.2,1.48,0.2)"
         style="fill-rule:evenodd;stroke:#000000;stroke-width:1.00000003pt"
         d="m -2.5,-1 c 0,2.76 -2.24,5 -5,5 -2.76,0 -5,-2.24 -5,-5 0,-2.76 2.24,-5 5,-5 2.76,0 5,2.24 5,5 z"
         id="path3855" />
    </marker>
    <marker
       style="overflow:visible"
       id="DotM"
       refX="0"
       refY="0"
       orient="auto">
      <path
         transform="matrix(0.4,0,0,0.4,2.96,0.4)"
         style="fill-rule:evenodd;stroke:#000000;stroke-width:1.00000003pt"
         d="m -2.5,-1 c 0,2.76 -2.24,5 -5,5 -2.76,0 -5,-2.24 -5,-5 0,-2.76 2.24,-5 5,-5 2.76,0 5,2.24 5,5 z"
         id="path3852" />
    </marker>
    <marker
       style="overflow:visible"
       id="DotL"
       refX="0"
       refY="0"
       orient="auto">
      <path
         transform="matrix(0.8,0,0,0.8,5.92,0.8)"
         style="fill-rule:evenodd;stroke:#000000;stroke-width:1.00000003pt"
         d="m -2.5,-1 c 0,2.76 -2.24,5 -5,5 -2.76,0 -5,-2.24 -5,-5 0,-2.76 2.24,-5 5,-5 2.76,0 5,2.24 5,5 z"
         id="path3849" />
    </marker>
  </defs>
  <metadata
     id="metadata7">
    <rdf:RDF>
      <cc:Work
         rdf:about="">
        <dc:format>image/svg+xml</dc:format>
        <dc:type
           rdf:resource="http://purl.org/dc/dcmitype/StillImage" />
        <dc:title></dc:title>
      </cc:Work>
    </rdf:RDF>
  </metadata>
  <g
     style="display:inline;opacity:1"
     transform="translate(0,-956.362)"
     id="layer1">
    <flowRoot
       style="font-style:normal;font-weight:normal;line-height:0.01%;font-family:sans-serif;letter-spacing:0px;word-spacing:0px;fill:#000000;fill-opacity:1;stroke:none;stroke-width:1px;stroke-linecap:butt;stroke-linejoin:miter;stroke-opacity:1"
       id="flowRoot4105"
       xml:space="preserve"
       transform="translate(-23.669777,898.78233)"><flowRegion
         id="flowRegion4107"
         style="font-family:sans-serif"><rect
           y="42.475227"
           x="554.35645"
           height="69.158417"
           width="113.26733"
           id="rect4109"
           style="font-family:sans-serif" /></flowRegion><flowPara
         id="flowPara4111"
         style="font-size:40px;line-height:1.25;font-family:sans-serif"> </flowPara></flowRoot>  </g>
  <g
     transform="translate(0,6)"
     style="display:inline;opacity:1"
     id="layer2">
    <g
       style="display:inline;opacity:1"
       id="g4881"
       transform="matrix(1.471663,0,0,1.471663,83.894026,-1429.6935)">
      <g
         transform="translate(-61.14223)"
         id="g29975">
        <g
           aria-label="Galan"
           style="font-style:normal;font-variant:normal;font-weight:normal;font-stretch:normal;line-height:0%;font-family:Voltaire;-inkscape-font-specification:Voltaire;letter-spacing:0px;word-spacing:0px;fill:#f2f2f2;fill-opacity:1;stroke:none"
           id="text2985"
           transform="translate(0,-4.0770204)">
          <path
             d="m 27.160629,1026.3606 q -9.933333,0 -15.066666,-6.1333 -5.1333331,-6.2 -5.1333331,-18.2 0,-5.86667 1.6666666,-10.4 1.7333335,-4.53334 4.5999995,-7.6 2.933334,-3.06667 6.8,-4.6 3.933333,-1.6 8.4,-1.6 5.066666,0 8.533333,1.6 3.533333,1.6 6.266666,4.13333 l -5.8,6 q -2.133333,-1.86667 -4.066666,-2.73333 -1.866667,-0.93334 -4.333333,-0.93334 -2.333334,0 -4.333333,0.93334 -1.933334,0.86666 -3.333334,2.86666 -1.4,1.93334 -2.2,5 -0.8,3.06667 -0.8,7.40004 0,4.5333 0.533334,7.6666 0.533333,3.0667 1.6,5 1.133333,1.8667 2.8,2.7334 1.733333,0.8 3.999999,0.8 1.533334,0 3,-0.3334 1.466667,-0.4 2.666667,-1.0666 v -10.4667 h -5.733333 l -1.066667,-7.73334 h 17.266666 v 23.00004 q -3.533333,2.1333 -7.6,3.4 -3.999999,1.2666 -8.666666,1.2666 z"
             style="font-size:66.66666412px;fill:#f2f2f2;stroke:none"
             id="path29772" />
          <path
             d="m 75.166586,1016.398 q 0,1.72 0.458667,2.5226 0.458667,0.7454 1.548,1.1467 l -1.892,6.02 q -2.752,-0.2867 -4.586667,-1.204 -1.834666,-0.9173 -2.924,-2.8093 -1.777333,2.1213 -4.529333,3.1533 -2.752,0.9747 -5.504,0.9747 -2.350666,0 -4.3,-0.7454 -1.891999,-0.688 -3.267999,-1.9493 -1.318667,-1.2613 -2.064,-2.9813 -0.745334,-1.7774 -0.745334,-3.8987 0,-4.988 3.898667,-7.6827 3.898666,-2.6946 11.008,-2.6946 h 4.070666 v -1.0894 q 0,-2.3506 -1.605333,-3.4973 -1.548,-1.1467 -4.472,-1.1467 -1.376,0 -3.669333,0.4014 -2.293334,0.4013 -4.586667,1.204 l -2.121333,-6.07737 q 2.981333,-1.14667 6.134666,-1.72 3.210667,-0.57333 5.618667,-0.57333 6.994666,0 10.262666,2.69466 3.268,2.69467 3.268,8.08404 z m -14.275999,3.268 q 1.490666,0 3.038666,-0.86 1.605334,-0.86 2.408,-2.4654 v -4.8733 h -2.178666 q -3.784,0 -5.561334,1.1467 -1.72,1.1466 -1.72,3.3826 0,1.72 1.089334,2.6947 1.146666,0.9747 2.924,0.9747 z"
             style="font-style:normal;font-variant:normal;font-weight:bold;font-stretch:normal;font-size:57.33333206px;line-height:1.25;font-family:'Fira Mono';-inkscape-font-specification:'Fira Mono Bold';letter-spacing:0px;fill:#f2f2f2;stroke:none"
             id="path29774" />
          <path
             d="m 99.510859,1015.6526 q 0,1.8347 1.032001,2.58 1.032,0.7454 2.86667,0.7454 1.14666,0 2.236,-0.2294 1.08933,-0.2866 2.064,-0.688 l 2.17866,6.1347 q -1.548,0.8027 -3.72666,1.376 -2.17867,0.6307 -5.10267,0.6307 -5.618668,0 -8.198668,-3.1534 -2.522666,-3.2106 -2.522666,-8.6 v -25.5133 h -8.944 v -6.24934 h 18.117333 z"
             style="font-style:normal;font-variant:normal;font-weight:bold;font-stretch:normal;font-size:57.33333206px;line-height:1.25;font-family:'Fira Mono';-inkscape-font-specification:'Fira Mono Bold';letter-spacing:0px;fill:#f2f2f2;stroke:none"
             id="path29776" />
          <path
             d="m 143.92179,1016.398 q 0,1.72 0.45866,2.5226 0.45867,0.7454 1.548,1.1467 l -1.892,6.02 q -2.752,-0.2867 -4.58666,-1.204 -1.83467,-0.9173 -2.924,-2.8093 -1.77734,2.1213 -4.52934,3.1533 -2.752,0.9747 -5.504,0.9747 -2.35066,0 -4.3,-0.7454 -1.892,-0.688 -3.268,-1.9493 -1.31866,-1.2613 -2.064,-2.9813 -0.74533,-1.7774 -0.74533,-3.8987 0,-4.988 3.89867,-7.6827 3.89866,-2.6946 11.008,-2.6946 h 4.07066 v -1.0894 q 0,-2.3506 -1.60533,-3.4973 -1.548,-1.1467 -4.472,-1.1467 -1.376,0 -3.66933,0.4014 -2.29334,0.4013 -4.58667,1.204 l -2.12133,-6.07737 q 2.98133,-1.14667 6.13466,-1.72 3.21067,-0.57333 5.61867,-0.57333 6.99467,0 10.26267,2.69466 3.268,2.69467 3.268,8.08404 z m -14.276,3.268 q 1.49066,0 3.03866,-0.86 1.60534,-0.86 2.408,-2.4654 v -4.8733 h -2.17866 q -3.784,0 -5.56134,1.1467 -1.72,1.1466 -1.72,3.3826 0,1.72 1.08934,2.6947 1.14666,0.9747 2.924,0.9747 z"
             style="font-style:normal;font-variant:normal;font-weight:bold;font-stretch:normal;font-size:57.33333206px;line-height:1.25;font-family:'Fira Mono';-inkscape-font-specification:'Fira Mono Bold';letter-spacing:0px;fill:#f2f2f2;stroke:none"
             id="path29778" />
          <path
             d="m 152.55673,1025.2273 v -30.444 h 8.02667 l 0.63066,3.49733 q 4.01334,-4.52933 9.46,-4.52933 4.07067,0 6.192,2.408 2.17867,2.35066 2.17867,6.708 v 22.36 h -9.17333 v -19.78 q 0,-2.752 -0.63067,-3.8413 -0.57333,-1.0894 -2.236,-1.0894 -1.43333,0 -2.69467,0.9747 -1.26133,0.9747 -2.58,2.6947 v 21.0413 z"
             style="font-style:normal;font-variant:normal;font-weight:bold;font-stretch:normal;font-size:57.33333206px;line-height:1.25;font-family:'Fira Mono';-inkscape-font-specification:'Fira Mono Bold';letter-spacing:0px;fill:#f2f2f2;stroke:none"
             id="path29780" />
        </g>
        <g
           aria-label="Montgomery"
           style="font-style:normal;font-variant:normal;font-weight:normal;font-stretch:normal;font-size:66.66666412px;line-height:0%;font-family:Voltaire;-inkscape-font-specification:Voltaire;letter-spacing:0px;word-spacing:0px;fill:none;fill-opacity:1;stroke:#f2f2f2;stroke-width:1.01925504;stroke-linecap:butt;stroke-linejoin:bevel;stroke-miterlimit:4;stroke-dasharray:none;stroke-dashoffset:0;paint-order:normal"
           id="text4811"
           transform="translate(0,-4.0770204)">
          <path
             d="m 193.26033,989.4273 q 0.13334,1.53333 0.2,3.06666 0.13334,1.46667 0.2,3.13334 0.13334,1.6 0.2,3.4 0.0667,1.8 0.0667,3.9333 v 2.8 l -0.33333,19.4667 h -9.4667 l 2.6,-46.2 h 11.33333 l 4.86667,29 h 0.26667 l 4.73333,-29 h 11.33333 l 2.6,46.2 h -9.66666 l -0.53334,-19.6667 q -0.0667,-1.1333 -0.0667,-2.1333 v -1.9333 q 0,-1.80004 0,-3.33337 0.0667,-1.53333 0.13333,-2.93333 0.13333,-1.4 0.26667,-2.8 0.13333,-1.4 0.26666,-3 h -0.26666 l -4.86667,27.9333 h -8.33333 L 193.527,989.4273 Z"
             style="font-size:66.66666412px;fill:none;stroke:#f2f2f2;stroke-width:1.01925504;stroke-miterlimit:4;stroke-dasharray:none"
             id="path29783" />
          <path
             d="m 240.16762,993.7513 q 3.49734,0 6.24934,1.14666 2.80933,1.14667 4.70133,3.268 1.892,2.12134 2.86667,5.10264 1.032,2.9814 1.032,6.6507 0,7.6827 -3.89867,11.9827 -3.89867,4.3 -10.95067,4.3 -7.052,0 -10.95066,-4.2427 -3.89867,-4.2427 -3.89867,-11.9827 0,-3.612 0.97467,-6.5933 1.032,-3.0387 2.924,-5.16 1.94933,-2.12134 4.70133,-3.268 2.752,-1.204 6.24933,-1.204 z m 0,6.7653 q -2.752,0 -4.07066,2.236 -1.31867,2.236 -1.31867,7.224 0,5.0454 1.31867,7.2814 1.31866,2.236 4.07066,2.236 2.752,0 4.07067,-2.236 1.31867,-2.236 1.31867,-7.3387 0,-4.9307 -1.31867,-7.1667 -1.31867,-2.236 -4.07067,-2.236 z"
             style="font-style:normal;font-variant:normal;font-weight:bold;font-stretch:normal;font-size:57.33333206px;line-height:1.25;font-family:'Fira Mono';-inkscape-font-specification:'Fira Mono Bold';letter-spacing:0px;fill:none;stroke:#f2f2f2;stroke-width:1.01925504;stroke-linecap:butt;stroke-linejoin:bevel;stroke-miterlimit:4;stroke-dasharray:none;stroke-dashoffset:0;paint-order:normal"
             id="path29785" />
          <path
             d="m 261.30123,1025.2273 v -30.444 h 8.02667 l 0.63066,3.49733 q 4.01334,-4.52933 9.46,-4.52933 4.07067,0 6.192,2.408 2.17867,2.35066 2.17867,6.708 v 22.36 h -9.17333 v -19.78 q 0,-2.752 -0.63067,-3.8413 -0.57333,-1.0894 -2.236,-1.0894 -1.43333,0 -2.69467,0.9747 -1.26133,0.9747 -2.58,2.6947 v 21.0413 z"
             style="font-style:normal;font-variant:normal;font-weight:bold;font-stretch:normal;font-size:57.33333206px;line-height:1.25;font-family:'Fira Mono';-inkscape-font-specification:'Fira Mono Bold';letter-spacing:0px;fill:none;stroke:#f2f2f2;stroke-width:1.01925504;stroke-linecap:butt;stroke-linejoin:bevel;stroke-miterlimit:4;stroke-dasharray:none;stroke-dashoffset:0;paint-order:normal"
             id="path29787" />
          <path
             d="m 323.48549,1023.45 q -1.83467,1.1466 -4.472,1.9493 -2.58,0.8027 -5.56133,0.8027 -6.02,0 -8.944,-3.0387 -2.86667,-3.096 -2.86667,-8.3707 V 1001.09 h -6.364 v -6.3067 h 6.364 v -6.59334 l 9.17333,-1.08933 v 7.68267 h 9.804 l -0.91733,6.3067 h -8.88667 v 13.7026 q 0,2.2934 1.032,3.268 1.032,0.9174 3.268,0.9174 1.60534,0 2.924,-0.344 1.31867,-0.4014 2.408,-1.032 z"
             style="font-style:normal;font-variant:normal;font-weight:bold;font-stretch:normal;font-size:57.33333206px;line-height:1.25;font-family:'Fira Mono';-inkscape-font-specification:'Fira Mono Bold';letter-spacing:0px;fill:none;stroke:#f2f2f2;stroke-width:1.01925504;stroke-linecap:butt;stroke-linejoin:bevel;stroke-miterlimit:4;stroke-dasharray:none;stroke-dashoffset:0;paint-order:normal"
             id="path29789" />
          <path
             d="m 336.07643,1027.234 q -0.172,0.4586 -0.28666,0.9173 -0.11467,0.4587 -0.11467,0.9173 0,1.2614 1.49067,2.0067 1.548,0.7453 5.21733,0.7453 2.236,0 3.612,-0.2293 1.376,-0.2293 2.12133,-0.6307 0.80267,-0.4013 1.08934,-0.9173 0.28666,-0.516 0.28666,-1.1467 0,-0.688 -0.28666,-1.204 -0.28667,-0.4586 -1.08934,-0.86 -0.74533,-0.344 -2.12133,-0.6306 -1.31867,-0.2294 -3.38267,-0.344 -3.49733,-0.2294 -5.79066,-0.7454 -2.29334,-0.516 -3.66934,-1.3186 -1.31866,-0.86 -1.892,-2.0067 -0.516,-1.1467 -0.516,-2.6373 0,-1.4907 0.86,-2.8094 0.91734,-1.376 2.46534,-2.408 -2.408,-1.4333 -3.89867,-3.612 -1.43333,-2.236 -1.43333,-5.332 0,-2.5226 0.91733,-4.5866 0.91733,-2.06404 2.69467,-3.5547 1.77733,-1.49067 4.3,-2.29334 2.52266,-0.80266 5.73333,-0.80266 4.988,0 8.54267,-1.14667 3.55466,-1.204 6.24933,-2.80933 l 2.236,6.82266 q -1.66267,0.688 -3.89867,0.91734 -2.236,0.22933 -4.87333,0.22933 v 0.22933 q 2.58,1.08934 4.01333,2.92404 1.43334,1.8346 1.43334,4.7586 0,2.1787 -0.91734,4.0707 -0.91733,1.8347 -2.63733,3.2107 -1.66267,1.3186 -4.128,2.1213 -2.408,0.7453 -5.38933,0.7453 -0.91734,0 -1.892,-0.057 -0.91734,-0.1147 -1.892,-0.344 -0.688,0.688 -0.688,1.376 0,0.516 0.22933,0.86 0.22933,0.344 1.08933,0.6307 0.86,0.2293 2.52267,0.4586 1.72,0.172 4.58667,0.344 5.79066,0.4014 8.772,2.8094 2.98133,2.408 2.98133,6.364 0,2.408 -1.14667,4.1853 -1.14666,1.8347 -3.268,3.0387 -2.064,1.2613 -5.10266,1.8346 -2.98134,0.6307 -6.76534,0.6307 -4.128,0 -6.99466,-0.6307 -2.80934,-0.5733 -4.644,-1.6626 -1.77734,-1.032 -2.58,-2.4654 -0.80267,-1.376 -0.80267,-2.9813 0,-1.3187 0.28667,-2.4653 0.344,-1.0894 1.31866,-2.236 z m 1.892,-22.4174 q 0,2.408 1.31867,3.7267 1.31867,1.2613 3.49733,1.2613 2.12134,0 3.32534,-1.2613 1.204,-1.3187 1.204,-3.8413 0,-4.7587 -4.52934,-4.7587 -2.17866,0 -3.49733,1.3187 -1.31867,1.2613 -1.31867,3.5546 z"
             style="font-style:normal;font-variant:normal;font-weight:bold;font-stretch:normal;font-size:57.33333206px;line-height:1.25;font-family:'Fira Mono';-inkscape-font-specification:'Fira Mono Bold';letter-spacing:0px;fill:none;stroke:#f2f2f2;stroke-width:1.01925504;stroke-linecap:butt;stroke-linejoin:bevel;stroke-miterlimit:4;stroke-dasharray:none;stroke-dashoffset:0;paint-order:normal"
             id="path29791" />
          <path
             d="m 377.67803,993.7513 q 3.49733,0 6.24933,1.14666 2.80933,1.14667 4.70133,3.268 1.892,2.12134 2.86667,5.10264 1.032,2.9814 1.032,6.6507 0,7.6827 -3.89867,11.9827 -3.89866,4.3 -10.95066,4.3 -7.052,0 -10.95067,-4.2427 -3.89867,-4.2427 -3.89867,-11.9827 0,-3.612 0.97467,-6.5933 1.032,-3.0387 2.924,-5.16 1.94933,-2.12134 4.70133,-3.268 2.752,-1.204 6.24934,-1.204 z m 0,6.7653 q -2.752,0 -4.07067,2.236 -1.31867,2.236 -1.31867,7.224 0,5.0454 1.31867,7.2814 1.31867,2.236 4.07067,2.236 2.752,0 4.07066,-2.236 1.31867,-2.236 1.31867,-7.3387 0,-4.9307 -1.31867,-7.1667 -1.31866,-2.236 -4.07066,-2.236 z"
             style="font-style:normal;font-variant:normal;font-weight:bold;font-stretch:normal;font-size:57.33333206px;line-height:1.25;font-family:'Fira Mono';-inkscape-font-specification:'Fira Mono Bold';letter-spacing:0px;fill:none;stroke:#f2f2f2;stroke-width:1.01925504;stroke-linecap:butt;stroke-linejoin:bevel;stroke-miterlimit:4;stroke-dasharray:none;stroke-dashoffset:0;paint-order:normal"
             id="path29793" />
          <path
             d="m 396.3463,1025.2273 v -30.444 h 6.708 l 0.63067,2.924 q 1.43333,-1.94934 2.86667,-2.924 1.49066,-1.032 3.49733,-1.032 1.72,0 2.924,0.86 1.204,0.86 1.72,2.752 1.376,-1.60534 3.03867,-2.58 1.66266,-1.032 3.66933,-1.032 3.268,0 4.816,2.12133 1.548,2.12133 1.548,6.82267 v 22.532 h -7.85467 v -21.5 q 0,-1.548 -0.28666,-2.1787 -0.28667,-0.688 -1.14667,-0.688 -0.74533,0 -1.49067,0.4014 -0.74533,0.4013 -1.66266,1.548 v 22.4173 h -6.42134 v -21.5 q 0,-1.548 -0.28666,-2.1787 -0.22934,-0.688 -1.08934,-0.688 -0.80266,0 -1.60533,0.516 -0.74533,0.4587 -1.60533,1.6054 v 22.2453 z"
             style="font-style:normal;font-variant:normal;font-weight:bold;font-stretch:normal;font-size:57.33333206px;line-height:1.25;font-family:'Fira Mono';-inkscape-font-specification:'Fira Mono Bold';letter-spacing:0px;fill:none;stroke:#f2f2f2;stroke-width:1.01925504;stroke-linecap:butt;stroke-linejoin:bevel;stroke-miterlimit:4;stroke-dasharray:none;stroke-dashoffset:0;paint-order:normal"
             id="path29795" />
          <path
             d="m 441.15856,1012.6713 q 0.45867,3.7267 2.408,5.332 1.94934,1.548 4.87334,1.548 1.94933,0 3.784,-0.6307 1.892,-0.6306 3.84133,-2.1213 l 3.84133,5.2173 q -2.236,1.7774 -5.332,2.9814 -3.096,1.204 -6.82266,1.204 -3.956,0 -6.99467,-1.204 -2.98133,-1.204 -4.988,-3.3254 -1.94933,-2.1786 -2.98133,-5.1026 -0.97467,-2.9814 -0.97467,-6.536 0,-3.3827 0.97467,-6.3067 0.97466,-2.9813 2.86666,-5.16 1.892,-2.236 4.644,-3.49734 2.752,-1.31866 6.30667,-1.31866 3.268,0 5.90533,1.08933 2.69467,1.032 4.58667,3.03867 1.892,2.00666 2.924,4.9307 1.032,2.924 1.032,6.5933 0,0.8027 -0.0573,1.72 0,0.86 -0.11467,1.548 z m 5.504,-12.78534 q -2.408,0 -3.89866,1.77734 -1.43334,1.72 -1.72,5.504 h 11.06533 q -0.0573,-3.268 -1.31867,-5.2747 -1.204,-2.00664 -4.128,-2.00664 z"
             style="font-style:normal;font-variant:normal;font-weight:bold;font-stretch:normal;font-size:57.33333206px;line-height:1.25;font-family:'Fira Mono';-inkscape-font-specification:'Fira Mono Bold';letter-spacing:0px;fill:none;stroke:#f2f2f2;stroke-width:1.01925504;stroke-linecap:butt;stroke-linejoin:bevel;stroke-miterlimit:4;stroke-dasharray:none;stroke-dashoffset:0;paint-order:normal"
             id="path29797" />
          <path
             d="m 491.07349,1025.2273 h -23.22 v -6.2493 h 6.30667 v -17.9454 h -6.30667 v -6.2493 h 14.448 l 0.74533,5.676 q 1.032,-3.096 3.268,-4.816 2.29334,-1.77734 5.10267,-1.77734 1.14667,0 1.94933,0.11467 0.86,0.11467 1.83467,0.40133 l -1.49067,8.88664 q -0.86,-0.2866 -1.72,-0.344 -0.80266,-0.1146 -1.77733,-0.1146 -2.86667,0 -4.52933,2.0066 -1.60534,2.0067 -2.35067,5.1027 v 9.0587 h 7.74 z"
             style="font-style:normal;font-variant:normal;font-weight:bold;font-stretch:normal;font-size:57.33333206px;line-height:1.25;font-family:'Fira Mono';-inkscape-font-specification:'Fira Mono Bold';letter-spacing:0px;fill:none;stroke:#f2f2f2;stroke-width:1.01925504;stroke-linecap:butt;stroke-linejoin:bevel;stroke-miterlimit:4;stroke-dasharray:none;stroke-dashoffset:0;paint-order:normal"
             id="path29799" />
          <path
             d="m 499.53645,994.7833 h 9.68933 l 5.73334,24.1373 h 0.22933 l 6.24933,-24.1373 h 9.40267 l -10.148,30.444 q -2.00667,6.1347 -6.07733,9.2307 -4.07067,3.1533 -11.06534,3.5546 l -1.032,-6.4786 q 2.236,-0.2867 3.784,-0.7454 1.60534,-0.4586 2.69467,-1.204 1.14667,-0.7453 1.892,-1.8346 0.80267,-1.032 1.43333,-2.5227 h -3.15333 z"
             style="font-style:normal;font-variant:normal;font-weight:bold;font-stretch:normal;font-size:57.33333206px;line-height:1.25;font-family:'Fira Mono';-inkscape-font-specification:'Fira Mono Bold';letter-spacing:0px;fill:none;stroke:#f2f2f2;stroke-width:1.01925504;stroke-linecap:butt;stroke-linejoin:bevel;stroke-miterlimit:4;stroke-dasharray:none;stroke-dashoffset:0;paint-order:normal"
             id="path29801" />
        </g>
      </g>
    </g>
  </g>
  <g
     transform="translate(0,6)"
     style="display:inline"
     id="layer3" />
</svg>
