<?xml version="1.0" encoding="UTF-8" standalone="no"?>
<svg
   xmlns:dc="http://purl.org/dc/elements/1.1/"
   xmlns:cc="http://creativecommons.org/ns#"
   xmlns:rdf="http://www.w3.org/1999/02/22-rdf-syntax-ns#"
   xmlns:svg="http://www.w3.org/2000/svg"
   xmlns="http://www.w3.org/2000/svg"
   version="1.1"
   id="svg2"
   height="280"
   width="1600">
  <defs
     id="defs4">
    <marker
       style="overflow:visible"
       id="marker8589"
       refX="0"
       refY="0"
       orient="auto">
      <path
         transform="matrix(0.4,0,0,0.4,2.96,0.4)"
         style="fill:#ffffff;fill-opacity:1;fill-rule:evenodd;stroke:#000000;stroke-width:1.00000003pt;stroke-opacity:1"
         d="m -2.5,-1 c 0,2.76 -2.24,5 -5,5 -2.76,0 -5,-2.24 -5,-5 0,-2.76 2.24,-5 5,-5 2.76,0 5,2.24 5,5 z"
         id="path8394" />
    </marker>
    <marker
       style="overflow:visible"
       id="marker8586"
       refX="0"
       refY="0"
       orient="auto">
      <path
         transform="matrix(0.8,0,0,0.8,5.92,0.8)"
         style="fill:#7d7d7d;fill-opacity:1;fill-rule:evenodd;stroke:#7d7d7d;stroke-width:1.00000003pt;stroke-opacity:1"
         d="m -2.5,-1 c 0,2.76 -2.24,5 -5,5 -2.76,0 -5,-2.24 -5,-5 0,-2.76 2.24,-5 5,-5 2.76,0 5,2.24 5,5 z"
         id="path8391" />
    </marker>
    <marker
       style="overflow:visible"
       id="DotS"
       refX="0"
       refY="0"
       orient="auto">
      <path
         transform="matrix(0.2,0,0,0.2,1.48,0.2)"
         style="fill-rule:evenodd;stroke:#000000;stroke-width:1.00000003pt"
         d="m -2.5,-1 c 0,2.76 -2.24,5 -5,5 -2.76,0 -5,-2.24 -5,-5 0,-2.76 2.24,-5 5,-5 2.76,0 5,2.24 5,5 z"
         id="path3855" />
    </marker>
    <marker
       style="overflow:visible"
       id="DotM"
       refX="0"
       refY="0"
       orient="auto">
      <path
         transform="matrix(0.4,0,0,0.4,2.96,0.4)"
         style="fill-rule:evenodd;stroke:#000000;stroke-width:1.00000003pt"
         d="m -2.5,-1 c 0,2.76 -2.24,5 -5,5 -2.76,0 -5,-2.24 -5,-5 0,-2.76 2.24,-5 5,-5 2.76,0 5,2.24 5,5 z"
         id="path3852" />
    </marker>
    <marker
       style="overflow:visible"
       id="DotL"
       refX="0"
       refY="0"
       orient="auto">
      <path
         transform="matrix(0.8,0,0,0.8,5.92,0.8)"
         style="fill-rule:evenodd;stroke:#000000;stroke-width:1.00000003pt"
         d="m -2.5,-1 c 0,2.76 -2.24,5 -5,5 -2.76,0 -5,-2.24 -5,-5 0,-2.76 2.24,-5 5,-5 2.76,0 5,2.24 5,5 z"
         id="path3849" />
    </marker>
  </defs>
  <metadata
     id="metadata7">
    <rdf:RDF>
      <cc:Work
         rdf:about="">
        <dc:format>image/svg+xml</dc:format>
        <dc:type
           rdf:resource="http://purl.org/dc/dcmitype/StillImage" />
        <dc:title></dc:title>
      </cc:Work>
    </rdf:RDF>
  </metadata>
  <g
     transform="translate(0,184)"
     style="display:inline;opacity:1"
     id="layer2">
    <g
       id="text39143"
       style="font-style:normal;font-variant:normal;font-weight:normal;font-stretch:normal;font-size:40px;line-height:125%;font-family:Raleway;-inkscape-font-specification:Raleway;letter-spacing:0px;word-spacing:0px;fill:#000000;fill-opacity:1;stroke:none;stroke-width:1px;stroke-linecap:butt;stroke-linejoin:miter;stroke-opacity:1"
       aria-label="UX Designer">
      <path
         id="path45009"
         style="font-style:normal;font-variant:normal;font-weight:500;font-stretch:normal;font-size:126.66666412px;font-family:Raleway;-inkscape-font-specification:'Raleway Medium';fill:#ffffff"
         d="m 134.31759,58.126668 q 7.85334,0 13.04667,-3.04 5.19333,-3.04 8.23333,-7.853334 3.16667,-4.939999 4.43334,-11.146666 1.26666,-6.333333 1.26666,-12.793333 v -45.473332 h 11.4 v 45.473332 q 0,9.12 -2.15333,17.353333 -2.02667,8.106666 -6.58667,14.313333 -4.56,6.206667 -11.90666,9.88 -7.22,3.546666 -17.60667,3.546666 -10.76667,0 -18.11333,-3.8 -7.34667,-3.799999 -11.90667,-10.006666 -4.433331,-6.333333 -6.459998,-14.44 -1.9,-8.233333 -1.9,-16.846666 v -45.473332 h 11.399998 v 45.473332 q 0,6.713333 1.26667,13.046666 1.39333,6.206667 4.43333,11.02 3.16667,4.813333 8.23334,7.853333 5.19333,2.913334 12.91999,2.913334 z" />
      <path
         id="path45011"
         style="font-style:normal;font-variant:normal;font-weight:500;font-stretch:normal;font-size:126.66666412px;font-family:Raleway;-inkscape-font-specification:'Raleway Medium';fill:#ffffff"
         d="m 195.35312,-22.179997 27.36,37.493332 27.36,-37.493332 h 12.53999 l -33.81999,45.599999 32.80666,44.333332 h -12.54 L 222.71312,31.526668 196.36645,67.753334 h -12.66667 l 32.80667,-44.333332 -33.82,-45.599999 z" />
      <path
         id="path45013"
         style="font-style:normal;font-variant:normal;font-weight:500;font-stretch:normal;font-size:126.66666412px;font-family:Raleway;-inkscape-font-specification:'Raleway Medium';fill:#ffffff"
         d="m 304.40124,67.753334 v -89.933331 h 31.16 q 10.76667,0 18.87333,3.546666 8.23334,3.546667 13.68,9.6266666 5.44667,6.0799999 8.10667,14.313333 2.78667,8.1066664 2.78667,17.3533334 0,10.259999 -3.04,18.619999 -3.04,8.233333 -8.74,14.186667 -5.7,5.826666 -13.80667,9.119999 -7.98,3.166667 -17.86,3.166667 z m 63.08,-45.093332 q 0,-7.6 -2.15333,-13.9333334 -2.02667,-6.4599999 -6.20667,-11.0199998 -4.05333,-4.5599999 -10.00667,-7.0933332 -5.95333,-2.6599996 -13.55333,-2.6599996 h -19.76 v 69.666665 h 19.76 q 7.72667,0 13.68,-2.66 6.08,-2.66 10.00667,-7.346667 4.05333,-4.686666 6.08,-11.019999 2.15333,-6.46 2.15333,-13.933333 z" />
      <path
         id="path45015"
         style="font-style:normal;font-variant:normal;font-weight:500;font-stretch:normal;font-size:126.66666412px;font-family:Raleway;-inkscape-font-specification:'Raleway Medium';fill:#ffffff"
         d="m 422.68216,69.020001 q -7.47334,0 -13.68,-2.66 -6.20667,-2.786667 -10.64,-7.473333 -4.43333,-4.686667 -6.96667,-10.893334 -2.40666,-6.333333 -2.40666,-13.299999 0,-6.966667 2.40666,-13.173333 2.53334,-6.206667 6.96667,-10.893333 4.56,-4.686667 10.76666,-7.346667 6.20667,-2.7866666 13.68,-2.7866666 7.47334,0 13.55334,2.7866666 6.20666,2.7866666 10.51333,7.473333 4.30667,4.56 6.58667,10.766667 2.40666,6.08 2.40666,12.666666 0,1.393333 -0.12666,2.533333 0,1.14 -0.12667,1.773334 h -54.84666 q 0.38,4.94 2.28,8.993333 1.89999,4.053333 4.93999,6.966666 3.04,2.913334 6.84,4.56 3.92667,1.646667 8.23334,1.646667 3.04,0 5.95333,-0.76 2.91333,-0.886667 5.44667,-2.28 2.53333,-1.393333 4.43333,-3.42 2.02667,-2.026667 3.04,-4.56 l 9.62667,2.66 q -1.64667,3.673333 -4.56,6.713333 -2.78667,3.04 -6.58667,5.32 -3.67333,2.153333 -8.23333,3.42 -4.56,1.266667 -9.5,1.266667 z m 22.67333,-38.76 q -0.38,-4.686666 -2.40667,-8.613333 -1.9,-4.053333 -4.94,-6.84 -2.91333,-2.786666 -6.84,-4.306666 -3.92666,-1.6466668 -8.36,-1.6466668 -4.43333,0 -8.36,1.6466668 -3.92666,1.52 -6.96666,4.433333 -2.91334,2.786667 -4.81333,6.713333 -1.77334,3.926667 -2.15334,8.613333 z" />
      <path
         id="path45017"
         style="font-style:normal;font-variant:normal;font-weight:500;font-stretch:normal;font-size:126.66666412px;font-family:Raleway;-inkscape-font-specification:'Raleway Medium';fill:#ffffff"
         d="m 491.5631,69.020001 q -7.98,0 -15.70667,-2.406667 -7.72667,-2.533333 -13.3,-7.22 l 4.81333,-7.473333 q 5.82667,4.433333 11.65334,6.713333 5.82666,2.153334 12.28666,2.153334 7.22,0 11.4,-2.786667 4.30667,-2.913333 4.30667,-8.106667 0,-2.406666 -1.14,-4.053333 -1.14,-1.773333 -3.42,-3.04 -2.28,-1.266666 -5.82667,-2.28 -3.54666,-1.013333 -8.23333,-2.153333 -5.95333,-1.52 -10.26,-2.913333 -4.30667,-1.393334 -7.09333,-3.293334 -2.78667,-1.9 -4.05334,-4.559999 -1.26666,-2.66 -1.26666,-6.586667 0,-4.94 1.9,-8.74 2.02666,-3.9266664 5.44666,-6.4599997 3.42,-2.66 7.98,-3.9266666 4.68667,-1.3933333 10.00667,-1.3933333 7.47333,0 13.93333,2.4066666 6.46,2.4066666 10.89334,6.3333332 l -5.06667,6.7133328 q -4.18,-3.673333 -9.37333,-5.446666 -5.19334,-1.9000001 -10.64,-1.9000001 -6.08,0 -10.38667,2.6600001 -4.18,2.533333 -4.18,8.233333 0,2.28 0.76,3.8 0.88667,1.52 2.78667,2.66 1.9,1.14 4.81333,2.026667 3.04,0.886666 7.22,1.899999 6.58667,1.52 11.4,3.166667 4.94,1.52 8.10667,3.673333 3.29333,2.153334 4.81333,5.066667 1.64667,2.913333 1.64667,7.093333 0,9.246667 -7.09334,14.693333 -7.09333,5.446667 -19.12666,5.446667 z" />
      <path
         id="path45019"
         style="font-style:normal;font-variant:normal;font-weight:500;font-stretch:normal;font-size:126.66666412px;font-family:Raleway;-inkscape-font-specification:'Raleway Medium';fill:#ffffff"
         d="M 530.97425,67.753334 V 1.6333354 h 11.14667 V 67.753334 Z m 0,-78.533332 v -13.933333 h 11.14667 v 13.933333 z" />
      <path
         id="path45021"
         style="font-style:normal;font-variant:normal;font-weight:500;font-stretch:normal;font-size:126.66666412px;font-family:Raleway;-inkscape-font-specification:'Raleway Medium';fill:#ffffff"
         d="m 586.51364,68.513334 q -6.71334,0 -12.41334,-2.786667 -5.57333,-2.786666 -9.62666,-7.473333 -4.05334,-4.686666 -6.33334,-10.766666 -2.15333,-6.08 -2.15333,-12.666667 0,-6.966666 2.15333,-13.173333 2.28,-6.333333 6.33334,-11.019999 4.05333,-4.686667 9.62666,-7.346667 5.7,-2.7866666 12.54,-2.7866666 8.36,0 14.44,4.0533332 6.08,4.0533333 10.26,10.2599994 V 1.6333354 h 9.88 V 66.993334 q 0,7.093333 -2.66,12.413333 -2.66,5.446667 -7.22,9.12 Q 606.7803,92.2 600.57364,94.1 q -6.08,1.9 -13.04667,1.9 -11.27333,0 -18.36667,-3.926666 -6.96666,-3.8 -11.65333,-10.64 l 6.46,-5.7 q 3.92667,5.826666 10.13333,8.74 6.20667,2.913333 13.42667,2.913333 4.56,0 8.61333,-1.266667 4.18,-1.266666 7.22,-3.8 3.04,-2.533333 4.81334,-6.333333 1.9,-3.8 1.9,-8.993333 V 55.340001 q -1.9,3.04 -4.56,5.573333 -2.53334,2.406667 -5.57334,4.18 -3.04,1.646667 -6.46,2.533333 -3.42,0.886667 -6.96666,0.886667 z m 3.42,-9.12 q 3.54666,0 6.84,-1.266666 3.29333,-1.266667 6.08,-3.293334 2.78666,-2.153333 4.68666,-4.813333 1.9,-2.66 2.53334,-5.446666 v -19 q -1.39334,-3.42 -3.67334,-6.206667 -2.15333,-2.786666 -4.94,-4.813333 -2.78666,-2.153333 -6.08,-3.293333 -3.16666,-1.14 -6.46,-1.14 -5.06666,0 -9.12,2.153333 -3.92666,2.153333 -6.71333,5.7 -2.78667,3.546667 -4.30667,8.106667 -1.52,4.433333 -1.52,8.993333 0,4.94 1.77334,9.373333 1.77333,4.433333 4.81333,7.726666 3.04,3.293334 7.09333,5.32 4.18,1.9 8.99334,1.9 z" />
      <path
         id="path45023"
         style="font-style:normal;font-variant:normal;font-weight:500;font-stretch:normal;font-size:126.66666412px;font-family:Raleway;-inkscape-font-specification:'Raleway Medium';fill:#ffffff"
         d="M 696.46622,67.753334 H 685.31955 V 30.766668 q 0,-10.64 -3.29333,-15.453333 -3.16667,-4.813333 -9.75333,-4.813333 -3.42,0 -6.84,1.393333 -3.42,1.266667 -6.46,3.546667 -3.04,2.28 -5.32,5.446666 -2.28,3.166667 -3.42,6.966667 V 67.753334 H 639.08622 V 1.6333354 h 10.13333 V 15.820002 q 3.92667,-6.9666668 11.27334,-11.1466667 7.47333,-4.1799999 16.21333,-4.1799999 5.7,0 9.5,2.1533333 3.8,2.0266666 6.08,5.8266665 2.28,3.6733328 3.16667,8.7399998 1.01333,5.066667 1.01333,11.02 z" />
      <path
         id="path45025"
         style="font-style:normal;font-variant:normal;font-weight:500;font-stretch:normal;font-size:126.66666412px;font-family:Raleway;-inkscape-font-specification:'Raleway Medium';fill:#ffffff"
         d="m 743.05978,69.020001 q -7.47333,0 -13.68,-2.66 -6.20666,-2.786667 -10.64,-7.473333 -4.43333,-4.686667 -6.96666,-10.893334 -2.40667,-6.333333 -2.40667,-13.299999 0,-6.966667 2.40667,-13.173333 2.53333,-6.206667 6.96666,-10.893333 4.56,-4.686667 10.76667,-7.346667 6.20667,-2.7866666 13.68,-2.7866666 7.47333,0 13.55333,2.7866666 6.20667,2.7866666 10.51334,7.473333 4.30666,4.56 6.58666,10.766667 2.40667,6.08 2.40667,12.666666 0,1.393333 -0.12667,2.533333 0,1.14 -0.12666,1.773334 h -54.84667 q 0.38,4.94 2.28,8.993333 1.9,4.053333 4.94,6.966666 3.04,2.913334 6.84,4.56 3.92667,1.646667 8.23333,1.646667 3.04,0 5.95334,-0.76 2.91333,-0.886667 5.44666,-2.28 2.53334,-1.393333 4.43334,-3.42 2.02666,-2.026667 3.04,-4.56 l 9.62666,2.66 q -1.64666,3.673333 -4.56,6.713333 -2.78666,3.04 -6.58666,5.32 -3.67334,2.153333 -8.23334,3.42 -4.56,1.266667 -9.5,1.266667 z m 22.67334,-38.76 q -0.38,-4.686666 -2.40667,-8.613333 -1.9,-4.053333 -4.94,-6.84 -2.91333,-2.786666 -6.84,-4.306666 -3.92667,-1.6466668 -8.36,-1.6466668 -4.43333,0 -8.36,1.6466668 -3.92667,1.52 -6.96667,4.433333 -2.91333,2.786667 -4.81333,6.713333 -1.77333,3.926667 -2.15333,8.613333 z" />
      <path
         id="path45027"
         style="font-style:normal;font-variant:normal;font-weight:500;font-stretch:normal;font-size:126.66666412px;font-family:Raleway;-inkscape-font-specification:'Raleway Medium';fill:#ffffff"
         d="m 823.72072,11.386669 q -8.36,0.253333 -14.82,4.306666 -6.33333,4.053333 -8.99333,11.273333 V 67.753334 H 788.76072 V 1.6333354 h 10.38667 V 16.960002 q 3.42,-6.84 8.99333,-11.02 5.57333,-4.3066666 11.90667,-4.8133333 1.26666,0 2.15333,0 0.88667,0 1.52,0.1266667 z" />
    </g>
  </g>
</svg>
